<svg xmlns="http://www.w3.org/2000/svg" viewBox="60 500 1000 1000"><path d="M357.022 1198.524l-10.628 4.909q-85.735 39.37-108.854 56.153-23.031 13.743-38.752 41.143-19.3 12.041-59.674 315.334l880.229 1.916-37.67-109.022Q927 1320.125 920.319 1312.563q-15.058-44.008-65.506-75.359-21.525-13.447-60.798-32.894l-58.593 12.617-141.46-141.067-158.582-13.613-78.357 136.277" fill="#c26e3c"/><path d="M559.785 1188.388l-175.869 109.97-79.984 86.309 159.116 60.458q3.571.901 9.452.901 24.995 0 91.719-16.29 5.18 75.497 30.266 187.318l314.13.684-11.64-209.297q17.935-42.84 11.13-66.315-4.17-18.804-25.98-37.264-2.105-4.68-46.274-27.427-51.459-27.325-276.066-89.047z" fill="url(#grad0)"/><path d="M204.354 1327.473q-5.141 47.762-11.906 79.623-5.22 22.922-6.85 27.753l-11.578 38.524-2.692 9.895q-2.593 9.946-4.315 20.082-3.68 20.278-1.03 41.24 1.46 10.477 5.142 21.103l4.177 10.659q4.703 10.692 11.124 21.498 4.639 8.143 11.762 18.342l21.932.047q-3.544-25.65-5.121-52.295-.989-16.357-1.573-38.063-2.377-122.265-2.91-122.265-1.84-40.73-6.162-76.143zM527.668 1070.17l-114.025 29.88-.78.205q-41.639 68.157-67.683 103.738v.001l-.01.004q-14.386 19.662-24.015 29.375-27.996 31.862-73.446 44.335 35.729 10.631 41.217 26.112 7.697 13.667-1.663 61.331 2.775 3.468 5.694 6.874 25.034 27.381 63.01 27.447 5.834.225 11.408.225 64.427 0 94.012-30.066 26.552-30.706 29.676-103.597 49.664 17.445 100.474 17.445 17.586 0 35.31-2.09 7.415 50.4.938 68.55-4.66 19.407-34.35 44.12 45.504 14.997 62.152 15.96 9.645 1.222 19.243 1.222 32.75 0 64.95-14.22 36.439-13.226 135.307-81.844h.009q-16.999 127.081-8.828 197.568 4.483 45.066 18.14 104.94l118.25.258 4.023.008q-70.006-226.42-93.533-284.16-28.569-76.104-54.424-85.874l.009.001q14.973 5.166 27.233 13.556-13.313-12.314-31.154-24.27-14.88-9.829-60.798-32.894l-58.593 12.617-141.46-141.067-66.293-5.69z" fill="#8c4a21"/><path d="M572.555 1437.966q-2.37 26.05 2.333 69.021 3.827 34.195 16.562 110.06l36.175.08 262.516.57-18.11-122.87q-112.732-35.41-162.013-44.08-50.543-10.283-137.457-12.782z" fill="#8c4322" fill-opacity=".506"/><path d="M430.663 1231.363l6.17 3.91q40.05 26.172 68.34 36.001 25.108 9.328 76.431 11.696-10.828 92.57-11.696 117.372-1.678 28.635 4.057 42.944-30.248 5.303-66.115-4.045-32.728-7.243-141.982-45.878l52.73-80.454 12.065-81.546" fill="#8c4322" fill-opacity=".463"/><path d="M205.2 1330.427q-1.007 50.419-2.287 82.138-.986 22.615-1.29 27.077-3.6 57.984-3.484 61.937-.697 17.358-.236 34.155.256 8.394.918 16.624.123 4.198 2.765 24.38 2.124 15.364 7.142 39.477l17.125.037q-.344-1.361-.661-2.688-5.055-19.802-8.232-51.396-2.044-21.62-3.336-46.72-.4-6.176-1.7-37.534-1.996-55.921-2.978-77.31-1.446-32.201-3.746-70.177zM871.005 1368.728c-5.34 38.33-10.68 76.66-5.5 125.4 3.908 36.758 13.799 79.436 25.161 123.571l17.95.039 11.369.025 39.67.086c-6.114-12.86-12.32-24.947-18.657-35.95-21.988-38.186-45.54-63.32-57.467-96.673-11.926-33.354-12.226-74.926-12.525-116.498z" fill="#5f2e0f"/><g fill="#5f2e0f"><path d="M656.323 1204.004q-27.6 11.978-55.787 14.691-4.816.465-9.654.658-3.43.138-6.876.14l-.054-.003h-.011q-7.105 0-14.253-.584h-.006q.164 3.237.92 5.548 1.11 2.523 3.05 3.99.575 1.234 7.27 2.554 1.313.061 2.674.061 7.918 0 17.468-2.074l8.987 41.958 30.558-12.065.007.001q-24.953 19.187-48.154 19.556-2.839.194-6.29.194-18.667 0-55.25-5.682-21.244-2.764-40.686-9.625-24.437-8.256-60.722-43.226h-.005q20.455 27.873 45.644 38.484 33.996 15.413 81.002 21.84 11.962 1.649 23.34 1.649 19.15 0 36.648-4.672 21.017-4.875 60.416-31.437l-20.612-38.374.383-3.582z"/><path d="M520.086 1188.502l.426 4.065q2.94 28.405-.076 35.705-4.683 14.348-24.087 19.077-4.378 38.4-11.667 71.992-7.066 26.355-9.471 29.988-3.786 8.957-8.65 16.135-10.515 17.453-37.538 25.242-21.238 5.711-64.714 3.619 27.158-12.335 37.775-23.431 4.351-4.34 7.657-9.671l2.98-5.642q2.684-5.92 3.932-13.205 2.186-14.86-.302-34.175l-2.857-19.681q-6.532-35.937-8.633-50.769-1.173-5.368-2.385-27.96-1.665-27.305 9.176-77.57l108.434 56.281"/></g><g><path d="M357.724 1200.046c-42.585 19.658-85.018 39.248-112.655 56.634-27.505 17.302-40.21 32.325-50.016 56.054-9.874 23.895-16.806 56.63-25.373 108.78-8.561 52.11-18.732 123.435-28.907 194.786l-1.656-1.913 880.23 1.916-1.583 2.24c-16.948-47.474-33.911-94.992-49.768-147.721-4.854-16.143-9.603-32.767-14.284-49.154-4.554-15.943-9.04-31.651-13.501-46.484-5.934-19.734-11.807-37.867-17.706-52.889-14.857-37.83-29.856-55.846-51.29-71.9-21.571-16.156-49.67-30.328-77.955-44.588l1.107.142-58.593 12.616-.891.192-.646-.643-141.46-141.067 1.04.483-158.581-13.612 1.596-.835-78.357 136.277-.266.463-.485.223m-1.405-3.044l-.75.687 78.357-136.277.532-.926 1.065.091 158.58 13.613.609.052.432.431 141.46 141.067-1.536-.452 58.593-12.617.58-.124.528.266c28.209 14.222 56.602 28.53 78.455 44.899 21.99 16.47 37.345 35.018 52.402 73.358 5.95 15.152 11.853 33.389 17.795 53.148 4.47 14.863 8.961 30.587 13.515 46.53 4.68 16.385 9.426 32.996 14.27 49.108 15.83 52.637 32.765 100.077 49.715 147.56l.802 2.244-2.384-.005-880.229-1.915-1.928-.005.272-1.908c10.173-71.339 20.35-142.703 28.917-194.857 8.562-52.114 15.542-85.215 25.584-109.516 10.11-24.467 23.327-39.998 51.329-57.612l-1.633 1.027 1.633-1.027c27.864-17.528 70.534-37.221 113.035-56.84z"/></g><g><path d="M429.245 1158.514l5.344 4.157q47.266 42.016 115.737 53.598 61.225 11.653 119.788-18.847l35.349-96.51 34.915-107.018 6.181-109.463-73.495-124.272-114.631-22.585-87.358 85.654q-45.394 93.52-48.324 125.998-3.926 21.382 4.432 55.963l2.062 153.325" fill="#f6cbb4"/><path d="M499.71 920.31l3.524.753q10.708 2.355 20.18 3.856 7.547 1.013 8.699.968 2.673.167 4.97.073 2.284-.102 4.19-.465l1.83-.416q1.743-.476 3.212-1.14 3.74-1.616 8.359-5.984-3.249-2.339-10.777-5.245-6.474-2.596-31.23-11.263-14.996 3.25-19.375 3.63-4.936.603-8.57-.684l14.988 15.916M515.318 867.36l.607-7.835q1.179-23.942 8.127-43.93 4.899-13.143 15.567-22.33 11.04-8.906 27.2-12.557 22.065-4.532 39.821-1.933 19.607 2.367 34.226 11.36 9.274 5.046 17.9 19.588 12.494 23.54 12.34 75.923l30.49 11.237 22.774-9.257-40.275-104.902q-34.94-24.703-53.567-34.372-23.437-12.426-41.06-13.934-13.262-.927-23.337 1.426-10.615 2.308-19.906 6.31-28.96 13.434-56.052 32.43l-19.607 71.744 44.752 21.032" fill="#e0a491"/><path d="M484.183 1011.623l-1.379-6.623q-4.587-20.29-5.103-36.772.711-12.668 2.03-14.102 1.42-4.004 4.085-6.844 5.612-5.427 15.185-7.09 4.695-.912 9.83-1.378 18.352-1.217 25.223-2.399 2.804.014 12.077-3.859 11.344-4.468 22.827-27.37l-14.823-29.957q-11.612 3.8-17.524 1.809-2.225-.39-8.98-2.9l-13.539-7.703-25.241-4.883-86.126 126.17q40.205-.637 52.295 3.705 14.172 3.559 29.163 20.196" fill="url(#grad1)"/><path d="M645.254 1029.892l-.524-1.49q-3.134-12.675-26.168-51.918-5.159 16.412-8.932 17.71-1.091.548-2.307.525l-2.005-.226q-4.338-1.094-6.166-1.19-2.229-.116-3.847.363-2.15.229-8.011 4.582-4.228 3.298-12.376 11.67-13.437-1.175-18.413-.065-5.463.807-13.63 5.815l22.064 7.366-6.453 7.7 68.208 6.646q12.127-4.32 14.93-5.478 3.384-1.337 3.63-2.01" fill="url(#grad2)"/><path d="M595.163 950.93l.623 1.544q2.028 4.692 2.606 8.822.318 2.728-.816 4.893-1.238 2.123-4.113 3.622l-1.456.745-6.488 2.781q-1.65.7-3.153 1.476-3.52 2.055-3.836 2.647-1.028 1-1.759 2.137-.506.503-1.67 3.653-1.067 3.933-1.33 8.239 4.447-8.137 8.51-11.35 3.78-3.092 9.637-3.07 4.17-.11 9.455 1.866 1.657.648 3.26 1.873 1.618 1.356 2.068 2.827.777 3.058-1.636 5.167-2.606 2.17-9.02 3.51l14.251-1.137-15.133-40.244" fill="url(#grad3)"/><path d="M627.697 997.489l-8.99-17.09q-3.06 8.096-4.891 10.641-1.902 3.318-5.942 5.307-2.276.98-5.211.78-1.42-.145-2.21-.332l-7.155-1.686q-2.11-.405-4.41-.257-.65-.061-3.367.736-7.122 2.972-7.637 3.023-2.419.68-3.762.517-3.064-.406-5.281-2.42-.65-.244-8.3-8.218-2.918-2.502-3.495-2.613-.59-.471-3.45-1.256-1.136-.236-2.245-.323-5.418-.17-6.27-.371-1.935-.33-3.624-1.155-4.716-2.209-8.535-8.058-2.918-4.417 3.16-10.537-3.432 6.455-2.88 7.957-.047 1.934 4.644 7.384 1.37 1.427 2.921 1.238l1.368-.636q3.262-2.418 3.848-2.519 1.34-.6 2.953-.71 3.077-.294 6.806 1.416 2.841 1.564 4.445 3.763l1.73 2.457q5.155 8.974 5.943 9.857 1.917 2.795 3.732 3.129 1.414-.036 2.426-1.226.733-.577 5.154-7.262 1.269-1.655 2.67-2.927 3.123-2.645 5.514-2.997 3.54-.6 6.648.649 1.804.66 3.546 1.98l4.872 4.21q1.506.932 3.282.264 6.665-4.117 4.137-12.177-.286-4.776-18.848-27.9 1.669-.176 3.278.232 7.352 2.384 21.505 21.29 7.717 10.46 11.92 25.84M624.97 1036.592l1.847-.495q12.53-3.074 15.438-6.73.617-.82.859-1.74l.165-.94q.08-.963-.113-1.998-.413-2.569-3.256-7.75 3.884 4.591 5.128 10.572.547 2.723.539 6.279-.008 3.558-.861 7.581-.853 4.023-2.84 8.133-.301 1.049-3.747 6.028-4.045 5.986-19.493 19.091 14.6-15.115 18.465-22.273 4.478-7.23 6.565-20.893-5.637 6.92-11.491 11.438-6.244 4.787-13.4 7.384-1.881.487-2.336.043l-.245-.457q-.069-.519.296-1.381 1.276-3.02 8.48-11.892" fill="#e0a491"/><path d="M589.637 1219.398q-2.813.093-5.631.093h-.052l.052.001q2.824 0 5.642-.094z" fill="url(#grad4)"/><path d="M625.889 1042.585l.998-.352q3.036-1.037 5.721-2.25 1.774-.817 3.199-1.81 2.702-1.942 4.068-4.854.168-.305.38-1.11.082-.5-.153-.466-.102.002-.26.063-1.362.628-1.735.72-.874.24-1.102.24-.361.047-.938.053-2.865-.086-3.03-.04-.971.032-1.865.32-1.774.62-2.842 2.708-.816 1.184-2.441 6.778M610.874 969.463l.174 1.122q1.503 8.66.667 12.693-.792 3.953-4.718 6.737-1.204.837-2.473 1.119-.984.196-1.817-.05-.742-.177-1.8-1.059l-3.484-3.538q-.532-.507-1.103-.934-.97-.714-2.048-1.153-3.978-1.416-7.826-.472-2.697.568-5.06 2.593-1.173 1.056-2.22 2.482-.207.117-3.64 5.507-.215.366-1.07 1.401-1.037 1.28-2.785 1.782 1.793.176 3.044-.651l.944-.73q3.38-3.673 4.764-4.599 2.136-1.583 4.842-2.014 3.197-.536 6.736.199 1.42.317 2.505.781l4.523 2.22q1.293.533 3.026.603 4.3.055 8.02-2.551 1.783-1.322 2.7-3.42.387-.422.714-3.675.158-4.766-2.615-14.393M564.198 988.94l-.404-.771q-2.576-5.128-4.934-7.413-1.845-1.875-5.292-2.942-3.92-1.036-6.825-.432-1.188.24-2.193.84-.722.394-2.628 2.063-.411.291-.594.359-.765.393-2.066.074 1.054.627 1.985.502.88-.042 3.533-.98 1.303 1.087 2.742 1.966 1.743.928 2.677 1.04.893.174 1.912.165.308.024 3.457-.15.803-.022 1.15-.006 1.15.02 2.15.32.587.189 1.108.497.293.096 1.445 1.138 1.124 1.094 2.777 3.73M529.009 1124.26q3.367 1.056 6.468 1.594-3.415-.9-6.463-1.595z" fill="#c77e70"/><path d="M471.94 1073.479l-2.636-63.73q4.075 12.563 5.739 17.183 1.41 4.204 7.26 19.449.925 2.526 1.702 4.955.778 2.428 1.315 4.673l.454 2.177.287 2.04.098 1.884-.116 1.705-.345 1.51-.561 1.327-.759 1.16q-.856 1.076-2.028 1.884-2.852 2.087-10.41 3.783" fill="#f6cbb4"/><path d="M586.656 984.587l-.471.181q-3.098 1.132-4.845 2.384-1.582 1.08-3.968 4.158 1.292-1.62 2.15-2.247.88-.59 1.098-.625.392-.155.83-.224.636-.101 1.59.002.46.051.964.135 2.695.487 3.491.574 1.587.197 3.001.204 1.958.003 3.162-.138 1.633-.206 1.86-.289.558-.122.995-.279.879-.288 1.133-.819l.046-.29q-.017-.301-.228-.623-.868-1.278-3.628-2.535-1.058-.48-2.387-.44-1.212.072-4.793.871M561.488 984.09l-.231-.354q-1.348-2.31-3.932-3.809-3.303-1.795-7.149-2.612-1.456-.297-2.556-.228-.413.029-.753.106l-.325.089q-.307.1-.553.237-.669.311-1.133 1.28-.352 1.087.023 1.55.227.379.764.572.3.118.981.16.713.023 1.259-.021.205.004 3.367-.322.83-.073 1.64-.094 1.624-.042 2.915.238 1.212.252 2.499.976.842.415 3.184 2.232" fill="#85453d"/><path d="M679.129 946.259l-1.297.052q-11.384.508-18.247.306-7.59-.284-11.458-1.168-2.082-.433-3.936-1.033l-1.808-.634q-1.756-.672-3.346-1.465-4.017-1.952-9.97-6.4 9.9 4.397 15.331 5.539 3.148.706 7.552.874 1.593.056 4.235.014 9.155-.267 10.589-.228 3.477.024 5.21.329 1.09.176 1.96.437.54.09 2.224.933 1.778 1.107 2.96 2.444" fill="#f6cbb4"/><path d="M641.197 921.254l-1.029.19q-7.188 1.336-8.992 2.066-1.347.472-2.152.996-.405.26-.688.52-.21.137-.599.762-.337.752.117 1.252.45.486 1.5.73 1.999.511 7.996.296l3.847-6.813M536.946 905.428l.477.24q1.462.713 2.663 1.467.928.64 1.038.78.299.267.518.547.635.874.598 1.661-.037.788-.529 1.071-.35.182-1.008.011l-2.083-.62q-.383-.111-.824-.221l-3.018-.674q-.606-.138-1.133-.288-.528-.15-.921-.316l-.346-.172-.25-.183-.14-.196-.022-.209.092-.222q.149-.23.483-.48.432-.472 4.405-2.196" fill="#c77e70"/><path d="M489.802 940.238q0 .002 0 0" fill="#5f2e0f"/><path d="M558.433 737.574l-87.358 85.654q-5.279 10.875-9.983 20.924l49.447 25.618 1.156-7.12q8.182-56.915 32.065-77.06 25.337-23.271 55.768-23.271 8.327 0 17.035 1.743 26.43 6.52 52.534 43.345Q693.453 839.3 688 894.47l25.349 14.86q-4.213-54.096-9.668-97.388l-30.617-51.782-114.631-22.585zM494.749 867.031l-.178 21.224q29.195-1.734 37.728 3.319 6.304 3.218 10.22 9.165 2.053 2.883 5.257 8.676-3.93-5.737-13.883-10.644 14.708 11.754 14.992 16.575.095 1.23-1.16.802-.857-.182-4.388-2.646-20.885-.701-46.223-5.865 7.826 2.609 17.13 6.736-14.628-3.392-19.523-4.063-3.29-.525-4.822.914-11.871 13.873-21.856 41.262-11.833 34.428-6.744 38.862l-20.726-26.809 54.176-97.508" fill="#e0a491"/><path d="M697.446 900.887l-2.356 34.828q-19.737-25.53-44.894-25.53-16.344 0-34.977 10.777 16.6-6.984 28.955-6.984 5.778 0 10.628 1.528-1.895-.482-4.338-.482-7.456 0-20.018 4.49-14.822 5.48-13.972 9.842l17.158 1.218 15.147 4.514q26.572 1.863 32.034 5.686 17.696 8.045 23.905 27.902 6.897 17.574-7.226 61.55-15.282 46.277-32.378 61.857-27.637 26.219-74.288 34.649-13.858 1.626-25.927 1.626-32.957 0-52.585-12.127h-.005q17.393 14.189 66.883 17.806 4.11.376 8.347.376 23.646 0 51.263-11.7l.007.001q-11.146 60.818-25.949 76.643-8.947 12.532-32.51 20.096 1.816.037 3.623.037 43.768 0 86.14-22.068l35.35-96.51 34.915-107.018 3.881-68.733-46.813-24.274z" fill="#e0a491"/><path d="M456.66 1067.03l-27.516 83.917.101 7.567 5.344 4.157q28.081 24.962 63.648 39.182-9.965-38.956-12.365-51.499-4.53-20.769-3.101-31.368.357-2.975 2.12-7.515l30.176 6.69q-13.724-5.925-37.422-26.113-12.87-10.771-20.125-23.574l-.86-1.444zM457.364 965.51l.181 2.928q.732 19.49 6.113 28.082 4.436 7.986 22.887 14.328-11.61-8.854-14.1-13.452-4.397-6.127-5.697-15.87-.427-1.489-.431-10.238.248-7.175 1.799-14.17 2.365-10.55 7.228-17.945 5.583-8.646 17.213-18.197 14.793 7.253 26.806 7.928 8.116 1.027 25.935-4.417-19.763.495-36.361-4.329-7.95-2.758-9.176-4.215-.92-1.72 7.655-3.027-1.875-1.171-4.104-2.201-4.457-2.702-22.689-2.444l-23.26 57.238M612.813 935.408l1.953 1.563q5.77 4.814 12.347 8.493 2.222 1.184 4.623 2.116l2.458.853q2.214.74 5.851 1.305 6.495.85 14.351.057 9.063-.86 24.621-4.06-9.941.125-17.88-.265-6.398-.314-13.204-1.347-10.93-1.538-35.12-8.715M684.435 935.302l-1.19.557q-3.483 1.718-7.772 3.025-2.897.853-6.6 1.295-4.809.524-10.34.257-4.803-.295-5.777-.456-1.932-.216-3.814-.514-3.79-.598-7.061-1.516-3.457-.958-6.51-2.542-5.062-2.668-9.886-8.017 4.849 4.806 11.165 7.643 7.353 3.103 16.144 4.284 6.579.817 9.966-.487 3.582-1.305 6.284-5.333l15.391 1.804" fill="#e0a491"/><path d="M679.06 920.397l-2.947-1.246q-5.897-2.527-11.752-4.637-5.856-2.11-11.616-3.249-2.878-.552-5.722-.757l-3.482-.096-3.091.18q-2.864.286-5.603.93-5.52 1.335-10.062 3.55-2.25 1.085-4.137 2.253-1.231.6-4.641 3.46-5.383 4.576-1.623 10.956-.284-2.038 2.417-2.156 2.389-.265 12.268.962l20.937-7.455 29.054-2.695M527.832 967.335l-4.721 3.722q-9.528 7.474-18.053 14.588-8.526 7.114-14.715 13.384-3.052 3.12-5.27 5.94l-1.968 2.73q-3.338 5.242-3.337 9.28l.105 1.982q.272 1.921 1.044 3.662.992 2.671 5.531 8.102-1.1-6.7-.756-9.203.553-3.245 2.345-3.233 1.827-.324 6.228 1.805 3.43 1.645 10.98 6.36l20.662-1.276q-22.867-7.129-27.84-9.819-3.841-1.837-5.3-3.479-1.42-1.642-1.278-2.986.228-1.874 1.78-3.4 2.266-2.123 34.563-38.16M464.85 986.035l1.312 4.504q4.058 13.418 7.033 27.683 1.933 9.55 2.783 19.946.81 10.57.234 21.609-.282 5.444-.874 10.54l-.662 4.932q-.737 4.805-1.744 8.79-1.008 3.984-2.26 6.833l-1.307 2.486q-2.297 3.792-5.726 2.76-2.089-.011-7.866-7.062-5.067-6.933-10.414-16.054l-.875-79.949 20.366-7.018M531.084 905.526l14.813 7.03 2.755 2.963q-11.35.92-18.149 1.035-5.927.115-10.509-.6-4.924-.77-10.857-2.868l11.982-.603 9.965-6.957" fill="#e0a491"/><path d="M673.777 936.61l-.014.246q.094 1.394-2.426 1.647-3.396.27-10.617-.623-14.07-1.667-23.84-4.962-22.938-3.213-22.262-3.214l-.635-.131-.69-1.49q-.691-1.49-.545-2.646.555-1.296 1.147-1.363.687-.332 1.898-.456 2.938-.364 10.7 1.124 9.01 1.494 47.284 11.868" fill="#e0a491"/><path d="M653.118 888.041l-2.287-11.5q-6.547-35.3-15.924-63.423-11.09-29.22-22.406-36.103-11.011-8.37-29.279-7.255-19.923 1.568-52.763 14.136l94.92-50.346q92.656 91.191 95.341 97.69l17.125 65.498-84.727-8.697" fill="url(#grad5)"/><path d="M465.649 1007.731l2.6 5.62q16.812 37.533 29.366 52.51 4.139 5.55 14.317 12.215 7.296 4.45 20.762 8.45-10.276-3.369-15.034-7.053-1.926-1.431-3.629-3.286l-1.633-1.987q-1.571-2.106-2.836-4.795-5.455-10.005-7.12-47.62-16.651-9.258-23.072-14.968-6.761-5.517-16.475-18.716l2.754 19.63" fill="url(#grad6)"/><path d="M499.87 867.58l4.61 11.383 4.61 11.383-19.926 3.202-11.115-32.742 21.821 6.774M693.231 895.591l-.66 19.68-.662 19.681 4.854 6.927 9.467-31.406-12.999-14.881M654.397 920.251v.001" fill="#e0a491"/><path d="M662.61 913.363l-3.02-.109q-13.65-.467-18.458-1.713-4.552-1.336-4.723-1.865-1.101-.79-1.459-1.844-1.266-4.865 10.15-16.594l-1.796-9.253q-14.724-4.495-34.805 14.01-10.299 10.834-12.355 19.155-2.857 7.726-3.4 23.744l-.121 10.79 13.696 15.442 12.222-27.1q13.787 6.8 18.285 8.04 5.165 1.636 9.983.547-11.752-5.15-17.69-11.12 6.267 3.955 18.492 5.457 6.996.825 10.016.637 1.458-.05 2.401-.164 7.832-1.367 8.15-1.106 2.322-.055 5.494.959 8.81 3.044 31.829 18.841l1.715-12.568-21.057-14.767-10.54-11.797-13.01-7.622" fill="url(#grad7)"/><path d="M546.979 981.772l-.284.114q-3.919 1.957-7.405-.849-2.328-1.63-5.25-5.587-1.568-2.022-1.745-4.373-.074-1.59 1.005-3.607 1.197-2.13 3.504-4.46 5.216-5.274 10.285-7.647l1.045-.347q1.022-.232 1.53-.02l.57.399.351.672.155.898q.072 2.114-.941 4.953-1.013 2.84-2.457 4.954-1.495 2.17-3.21 2.504-.83.15-1.553.021-.237.015-2.437-.625-.798-.165-.938-.138-.372-.104-1.439.383-1.736 1.104-1.871 3.92.113 3.932 2.739 6.616.486.431 1.013.654.68.29 1.464.145.264.03 1.535-.591l2.993-1.948q.44-.211.718-.094.864.45.623 4.053" fill="url(#grad8)"/><path d="M463.982 1089.034l4.347 2.87q37.346 25.707 62.635 33.517 29.583 9.36 54.639 3.256-35.08-5.425-50.982-11.737-6.445-2.448-12.051-5.667l-5.345-3.46q-5.11-3.676-9.066-8.413-3.921-4.769-6.69-10.598l-2.534-6.046q-2.272-6.287-3.705-13.345-3.793-17.452-4.166-54.802l-20.731-16-6.351 90.425" fill="url(#grad9)"/><path d="M461.372 1095.267q-8.371 32.965-13.13 64-.982 6.851-1.489 13.448 42.007 32.146 99.022 42.746-9.72-12.445-16.55-34.232-6.667-19.869-16.12-63.872l-51.733-22.09z" fill="url(#grad10)"/><path d="M589.637 1219.398q-2.309.076-4.621.09l.005.001q2.318-.015 4.627-.09z" fill="#e0a491"/><path d="M657.598 1111.006l-73.265 17.637-2.295 4.78q-13.49 28.448-14.936 35.472-2.394 9.252-2.141 10.512-.408 6.186 1.471 10.528 1.165 4.918 12.092 13.678 14.734-18.678 17.222-20.742 3.046-2.82 3.47-2.82.06 0 .067.059.146-.044.268-.044.518 0 .6.793 1.246 2.132-15.305 38.629 10.553-.053 21.025-1.39l56.679-50.605-.74-34.197-4.212-22.29z" fill="url(#grad11)"/><path d="M696.6 899.26l-1.05 1.661q-3.116 5.104-6.57 9.151-3.918 4.206-6.82 5.137-3.242 1.28-7.836.888-3.141-.155-11.025-2.249 12.318 11.694 17.883 15.812 5.671 4.426 15.825 9.82l-.406-40.22" fill="#e0a491"/><path d="M462.74 991.05l1.088.09q12.58 1.614 27.082-4.74 13.19-5.18 55.128-30.406-14.238 8.732-23.875 17.472-6.947 6.597-8.434 8.45l-17.433 20.702q-2.84 3.304-5.527 6.033-5.41 5.611-9.795 7.078-1.846.578-3.84.05l-1.675-.73q-1.619-.968-3.048-2.717-3.1-2.502-9.67-21.283" fill="url(#grad12)"/><path d="M520.12 875.3l2.205 1.026q14.612 6.22 21.713 15.46 4.749 6.614 7.266 14.017 3.463 10.18 1.473 12.368-.806.584-2.933-.736-1.222-.612-6.273-5.208l-25.861-12.88-22.454-5.754-10.385-29.377L520.12 875.3" fill="#dfa391"/><path d="M617.544 920.34l-1.997 1.734q-11.983 9.585-4.794 14.974 6.41 3.783 9.864 4.45 18.587 5.014 29.704 8.757 16.394 6.415 19.008 8.752 5.893 3.587 10.48 8.347l4.099 5.117q3.612 5.499 5.424 12.212 6.937 25.422-7.578 67.51-7.624 20.45-16.22 32.558-7.102 10.576-20.537 23.87 18.351-2.626 29.691-12.818 9.728-8.54 19.017-28.127 10.847-22.623 27.36-71.564l-30.531-56.003-72.99-19.77" fill="url(#grad13)"/><path d="M501.89 865.363l.133-2.598q-.342-18.423 12.146-42.098 17.128-30.352 34.084-44.529 27.486-23.102 71.76-15.428 35.66 7.82 52.826 33.729 16.416 22.024 22.55 99.018l18.85 15.438-2.455-84.086-49.826-77.88q-24.31-11.197-42.317-14.885-18.027-3.983-55.102-.02l-84.905 73.853-18.737 50.724 40.993 8.762M499.849 865.494l8.137 22.658q18.744-.545 27.144 6.164 8.948 6.373 12.664 15.065-5.833-6.842-13.8-10.631 9.418 7.95 11.774 10.952 3.114 3.856 2.62 5.733-.495 1.086-4.177-1.41-19.213-1.82-46.646-6.122 2.623 2.224 14.277 6.012-9.559-3.107-14.638-3.495-5.329-.064-6.885 2.012l-1.986 2.377q-2.298 4.179-10.818 17.143-2.914 4.67-5.724 10.718-6.107 13.61-6.25 26.29-.31 14.418 5.132 23.837 4.083 7.305 18.8 10.055-3.324 7.947-15.648 4.658-9.35-3.179-12.708-14.035-1.74-4.23-3.053-18.66-.572-5.776-1.263-39.6-.22-6.972-1.172-23.873l18.268-39.337 25.952-6.511" fill="#c77e70"/><path d="M693.069 900.534l-.73 31.332q-11.392-12.52-19.095-15.91-10.496-4.637-22.711-5.119-12.213-.762-27.008 5.296-6.911 3.086-8.266 10.021 3.698-4.95 21.861-10.773 10.29-3.291 16.848-.432-11.998.341-21.645 3.733-16.003 6.09-17.249 9.563-.91 2.058 19.434 2.546 10.912 5.34 30.091 7.117-2.89 1.987-9.307 1.485-11.792-1.198-19.15-3.975 4.558 2.937 10.356 4.162 8.23 1.943 27.554.474 4.187.172 8.521 1.473 9.201 2.418 16.573 13.29 9.874 16.359 8.153 37.761-.655 9.563-3.459 20.606-3.208 12.835-10.773 34.72l10.618 16.776 24.216-12.91q2.689-33.82 1.726-45.025-.586-20.259-12.94-39.153l-6.432-61.4-17.186-5.658M443.873 1060.587l-15.427 38.534.8 59.393 5.343 4.157q5.918 5.26 12.169 10.044 11.487 8.794 24.102 15.976l11.015-87.747q26.31 14.63 28.138 14.63.046 0 .076-.009-30.993-18.782-37-27.393-4.683-5.944-5.584-12.078-.973-5.1-.122-14.406l-1.476-.07-20.683-.967-1.351-.064zM674.782 1087.58l-2.334 1.772q-23.756 19.938-58.098 32.844l23.904-1.533.007.001q-5.442 18.641-6.83 25.41l-2.049 10.198q-2.58 18.025-3.51 21.986-2.298 9.335-3.313 11.116-5.904 12.614-11.873 17.14-2.701 3.448-17.494 12.73 39.018-2.082 76.922-21.822l6.79-18.541-2.122-91.302z" fill="#c77e70"/><path d="M483.052 916.702l2.309 1.039q18.843 8.482 24.596 9.876 9.285 2.625 14.799 1.415 3.78-.65 7.736-4.397-3.41 1.104-5.666 1.4-2.436.344-4.854-.194-1.885-.46-3.91-1.409-.913-.391-6.424-3.205-1.132-.554-2.307-1.064-.895-.46-7.683-2.89-.873-.335-1.486-.64-1.912-.902-.458-1.663 1.632-.897 8.295-2.165-10.538-2.599-16.613-5.38l-8.334 9.277" fill="url(#grad14)"/><path d="M542.912 909.955l.959.48q1.962.965 3.395 1.872 1.433.908 1.632 1.684.077.385-.286.723l-.496.324q-1.159.547-3.607.916-1.203.184-2.595.323-.644.099-4.385.314-4.855.203-8.081.016-1.357-.073-2.51-.198l-1.113-.134q-1.067-.147-1.99-.328-2.691-.566-4.832-1.27 1.73.515 2.67.49 1.198-.03 2.063-.438.855-.406 1.294-.743.451-.287 3.682-2.928.676-.516 1.395-.968 1.358-.913 3.216-1.333 1.574-.33 3.837-.066 2.175.268 5.752 1.264" fill="#c77e70"/><path d="M677.702 946.058l-2.739.494q-9.563 1.712-13.372 2.246-6.338.883-7.437.943-2.371.24-4.56.354l-2.584.083q.008.021-2.507-.029-1.834-.066-3.475-.244-6.088-.607-11.107-3.008-3.765-1.754-6.38-5.482 1.903 1.514 2.94 2.079 1.762.928 2.27 1.055 3.004 1 5.865 1.154 2.044.184 6.09.194l3.04-.025 10.164-.18q3.297-.033 6.715-.002 5.082.025 17.077.368" fill="url(#grad15)"/><path d="M693.513 935.501l-1.257-1.494q-9.302-11.578-17.32-16.548-8.43-5.118-19.425-6.336-12.956-1.439-28.915 3.687-6.51 2.518-7.778 4.25-2.376 2.326-3.276 6.314 1.116-4.964 8.597-7.685 5.137-2.08 14.547-3.995 6.29-1.19 9.622-.592 5.3.62 15.06 5.627 7.005 3.394 30.145 16.772" fill="#85453d"/><path d="M691.79 937.81l-2.012-1.544q-16.168-12.454-22.054-15.533-6.83-3.985-14.103-4.964-6.37-.92-15.914 2.305-18.423 5.998-21.505 9.408-.51.854.838 1.82 1.828-1.297 2.56-1.23 1.98 1.417 4.065 1.75 3.109.555 10.555.844 5.894 3.137 14.15 4.73l6.342.948q22.995 2.323 24.698 2.755 6.375.95 10.398 2.657 5.289 2.231 8.247 7.02 2.466 3.405 6.232 14.628l-.285-16.987 7.323-44.757-13.288-1.618-6.248 37.767M495.162 867.585q0 .001 0 0M499.708 865.376l-.427.246q-2.767 1.262-4.812 5.769-1.808 3.747-5.678 18.38 17.33-1.653 24.89-1.016 10.642.825 19.915 4.435 4.97.727 12.357 12.27-6.598-8.434-17.801-12.587-10.554-4.5-21.143-2.054 13.97-.318 19.802 3.598 5.587 3.209 12.896 10.016 8.758 8.28 7.648 9.098-.149.497-1.657.357-2.733-.808-28.843-3.325-6.22-.854-14.316-3.39-6.57 2.695-10.171 5.225-2.678 1.587-6.297 6.483l-6.223 9.319q-7.812 10.482-8.778 12.18-3.307 5.354-3.87 6.755-5.575 10.947-7.993 31.765l4.42-64.027 18.852-40.094 17.23-9.403" fill="#85453d"/><path d="M490.793 1028.217l-1.305-1.518q-5.92-6.829-7.064-10.637-1.747-4.568 1.236-9.163 2.072-3.064 5.553-6.09 1.71-1.511 3.595-3.002l9.47-7.274 5.18-4.17q3.43-2.773 12.368-10.695-15.66 18.589-23.838 27.698-2.982 3.607-3.586 5.024-1.547 2.887-1.881 6.786-.434 4.553.272 13.04" fill="url(#grad16)"/><path d="M474.703 999.36l.136 2.738q.336 8.226 1.327 16.333 1.01 6.723 1.401 8.033.587 2.655 1.375 5.274 2.89 10.524 14.726 30.466-1.954-20.621-2.413-30.004-.551-9.549-.618-26.792l-15.934-6.048" fill="url(#grad17)"/><path d="M643.128 1028.302l.539 1.434q4.795 11.327-6.306 20.99-15.605 13.809-33.296 18.35-12.77 3.467-27.568.635-15.223-2.864-39.607-13.532 22.889-.328 33.976-1.144 13.605-.862 22.943-3.384 4.995-1.134 12.527-5.384 5.934-3.845 10.582-8.19l26.21-9.775" fill="url(#grad18)"/><path d="M467.711 1095.53l.962-3.237q2.983-9.555 5.093-20.528 1.367-7.381 1.863-16.18.462-8.96-.19-19.264-.32-5.09-.889-10.137l-.625-4.97q-.684-4.926-1.584-9.42-1.81-9.116-4.351-14.948-1.16-3.146-4.453-6.565-4.972-4.461-14.59-1.475l-1.65 71.657 20.414 35.068" fill="#c77e70"/><path d="M703.497 943.639l.625 4.238q2.834 19.094 3.514 28.694.972 11.704-.028 21.157-1.116 9.377-3.274 16.582l-8.922 28.272q4.749-12.075 6.27-11.429 1.594.38 1.424 17.506l20.91 5.83 11.851-30.883 8.033-31.598 1.542-58.85-41.945 10.48M465.414 1063.198q-5.04 0-18.359 12.366-7.332 6.767-18.68 18.57l.071 4.987.8 59.393 5.343 4.157q5.918 5.26 12.169 10.044 11.654 8.922 24.469 16.184l2.793-33.144q-6.204-11.329-8.009-28.504-1.8-23.936 2.995-31.232 1-1.247 2.29-1.574.168-.197.707-.197 1.086 0 3.68.799.723.098 5.187 2.986 8.438 6.282 13.156 9.08 6.547 3.935 16.647 8.579-14.057-10.892-18.172-13.535-4.158-3.252-16.194-9.039-3.168-2.155-3.463-2.9-1.9-2.259-2.422-6.632-.15-13.223-.72-15.463-.413-2.258-1.482-3.58l-1.308-.973q-.625-.372-1.498-.372zM659.268 1104.338l-22.772 8.488q13.167-7.986 19.229-12.857 6.155-4.714 17.423-15.898l-13.88 20.267" fill="#85453d"/><path d="M659.665 1101.977l-14.018 5.04-12.607 105.413q18.266-5.306 36.281-14.597l-9.656-95.856zM491.434 892.81l6.382-24.976-10.416 7.692-1.64 6.21q-1.739 6.915-1.991 8.948-.24 1.492-.3 2.64l-.002 1.043q.06.962.316 1.403.45 1.117 2.47.369 1.703-.705 5.18-3.33M507.921 864.358l-1.193-2.242q-10.073-16.51-3.911-28.916 13.358-32.055 34.295-52.287 17.764-15.383 37.521-19.171 25.604-5.867 46.636-1.304 11.236 1.89 29.206 13.225 26.054 17.964 30.953 26.234 6.98 8.922 9.758 25.46.843 5.692 1.208 12.283l1.567 47.568q1.246 13.144 3.9 18.256 4.586 9.111 13.004 10.477 6.847 1.677 22.721-1.183l-.075-6.492-36.85-122.525-32.977-34.784-49.053-15.448-31.241-4.332-77.94 23.936-58.276 101.765 60.747 9.48" fill="#85453d"/><path d="M637.822 921.88l-1.202.291q-5.437 1.315-7.383 2.03-2.527.861-2.675 1.685-.058.549.736 1.043.386.246.923.471.206.13 1.846.619 2.363.613 4.118.734 2.013.117 2.849-.128 1.576-.323 1.832-1.656.286-1.522-1.044-5.09M537.72 905.213l.665.559q2.064 1.718 3.514 3.072.461.439.786.796l.282.332q.238.28.312.57.016.035-.025.145-.047.079-.166.115-.232.072-.737.001-.667-.059-3.345-.863l-1.286-4.727" fill="#c77e70"/><path d="M619.937 976.452l2.212 1.56q16.538 10.679 29.327 28.164 4.628 6.44 7.857 14.001 3.23 7.561 3.523 15.689l-.156 4.056-.667 4.074-1.21 4.08-1.722 4.08q-1.978 4.081-4.794 8.165-4.562 8.164-30.351 32.69 13.837-29.86 19.126-43.056 2.286-5.65 3.144-9.255.429-1.852.5-3.504l-.02-1.655q-.328-4.471-3.89-11.907-4.303-9.75-22.88-47.182" fill="url(#grad19)"/><path d="M587.7 1127.433l-2.279-.142q-16.326-.585-35.724-5.49-14.766-3.575-28.047-11.257-9.437-5.893-14.815-14.383-4.163-5.289-11.126-24.633 3.751 7.009 9.032 13.026 4.922 4.676 6.427 5.274 2.473 1.543 5.512 2.72 1.139.833 10.557 2.596 3.954.585 8.23.968l17.207 1.528q4.207.46 8.022 1.198 7.69 1.437 12.624 4.78 4.873 3.383 7.75 8.146 4.158 7.252 6.63 15.669" fill="url(#grad20)"/><path d="M604.746 1062.242" fill="#f8e2cc"/><path d="M608.633 1053.653l-4.225 2.383q-12.661 7.342-25.428 12.938-8.516 3.65-17.137 5.553-17.853 3.633-33.283-1.606-7.47-2.585-12.85-7.176l-2.482-2.41q-2.3-2.535-3.952-5.505-5.81-8.339-6.782-36.23l106.139 32.053" fill="url(#grad21)"/><path d="M652.418 886.838l-.143-1.681q-.72-19.551-14.847-21.899-1.114-.526-10.607-1.427l-22.629-1.428q-12.455-1.356-15.05-2.11-2.584-.292-15.066-3.997l-23.17-7.98q-4.228-1.431-7.985-2.44-3.758-1.01-6.942-1.39l-3.024-.183q-2.868 0-5.214.61-1.421.016-6.128 2.905-5.073 4.143-8.74 9.937 17.479 4.412 26.853 9.784 8.966 5.114 14.974 13.916 4.989 6.5 13.7 25.966-2.498 19.408-1.614 25.374 1.174 9.982 5.572 11.286 2.5.532 4.59-4.777l5.576-22.554q3.181-9.323 4.404-10.843 3.67-6.855 10.03-10.863 8.1-5.556 25.047-7.469 19.496-1.71 30.413 1.263" fill="url(#grad22)"/><path d="M568.525 995.712l.187-.978q.854-4.385.729-7.337-.042-3.463-1.421-8.02-1.852-5.346-3.244-7.328-2.155-3.177-2.727-3.505-.997-.973-2.098-1.583-2.223-1.153-4.7-.984-2.477.169-4.924 1.036-9.72 3.826-10.467 4.451-2.493 1.434-2.592 3.015-.264 1.885 1.063 5.19 2.808-3.57 8.21-3.818 5.49-.366 9.728 2.671 1.523 1.088 3.053 2.795.381.336 2.296 2.927 2.681 3.797 6.907 11.468" fill="url(#grad23)"/><path d="M511.308 957.613l-2.917.397q-8.926 1.08-16.27 3.16-2.388.731-4.426 1.684l-1.927 1.022q-1.828 1.084-3.173 2.474-1.33 1.4-2.176 3.105l-.748 1.767q-.637 1.837-.923 3.896-.802 5.092.463 15.968 9.674-3.844 14.293-6.482 4.515-2.708 5.188-3.403 1.584-1.23 2.925-2.623 1.334-1.397 2.424-2.956.665-.7 2.837-4.966 2.068-4.335 4.43-13.043" fill="url(#grad24)"/><path d="M595.997 984.243l-.87-.423q-1.743-.863-3.46-1.532-1.716-.67-3.373-.888-2.494-.328-4.739.925-2.8 1.487-5.436 5.268-1.83 2.604-2.835 6.953 2.864-4.166 5.037-6.505 1.922-2.092 4.17-3.315 1.13-.6 2.376-.913.292-.125 1.946-.287 1.975-.216 7.184.717" fill="#f8e2cc"/><path d="M745.439 933.923" fill="#e0a491"/><path d="M480.526 1056.826l.731-2.586q1.783-6.45 2.038-7.705.613-2.545 1.067-5.036l.399-2.47q.351-2.456.449-4.822l.018-2.34-.14-2.284-.315-2.224-.5-2.16-.675-2.1-.832-2.044q-.913-2.017-2.079-3.947-2.851-4.845-9.938-12.89 3.894 25.102 5.492 33.5 1.66 9.138 4.285 19.108" fill="url(#grad25)"/><path d="M671.056 909.725" fill="#f6cbb4"/></g><g><path d="M430.165 1157.333c21.367 16.646 42.566 33.151 71.506 44.465 25.584 10.002 57.25 15.955 84.451 15.955 3.6 0 7.114-.104 10.529-.317l.03-.001-.03.001c29.166-1.815 50.893-11.54 72.85-21.38l-.793.851 35.35-96.51-.018.05 34.915-107.017-.072.38 6.182-109.464.206.847-73.496-124.272 1 .707-114.632-22.585 1.338-.4-87.358 85.654.306-.432c-19.169 40.72-38.225 81.22-45.496 111.362-7.23 29.977-2.79 49.687 1.71 69.632l.034.153.002.157 2.063 153.325-.577-1.16m-1.84 2.361l-.567-.442-.01-.719-2.062-153.325.036.31c-4.52-20.041-9.099-40.317-1.7-70.994 7.36-30.51 26.586-71.334 45.698-111.935l.115-.243.192-.188 87.358-85.654.563-.552.774.153 114.631 22.585.658.13.341.577 73.496 124.27.232.392-.026.455-6.182 109.463-.01.195-.061.185-34.915 107.018-.008.025-.01.026-35.349 96.51-.217.593-.576.258c-21.945 9.834-44.122 19.784-73.89 21.636-3.483.217-7.054.323-10.714.323-27.574 0-59.61-6.024-85.541-16.161-29.397-11.492-50.911-28.263-72.255-44.891z" fill="#1b1716"/></g><g><path d="M673.999 928.59l-1.105.372q-4.97 1.68-7.915 2.327-3.54.83-7.338 1.02-8.355.42-18.016-1.832-2.437-.59-6.369-1.793-.423-3.974.893-5.282 1.053-1.1 1.488-1.261 1.3-.765 3.108-1.329 4.315-1.366 10.152-1.7 2.467-.13 8.256.232 3.154.268 4.536.624 1.83.394 3.52 1.17.45.135 2.409 1.416 2.69 1.906 6.38 6.037M493.183 898.738l1.117.716q5.018 3.23 8.188 4.677 3.743 1.798 8.303 2.824 4.656.991 8.951 1.385 7.757.716 11.268.598l9.627 1.548q.543-4.009-4.657-7.25-5.3-3.347-12.133-6.076-5.274-2.23-10.154-2.722-3.476-.342-7.923.57-4.647.954-12.587 3.73" fill="#dcdcdc"/><path d="M512.061 894.354l-1.202.01q-2.43.09-5.09.644-4.646.954-12.586 3.73l1.117.716q5.018 3.23 8.188 4.677 3.743 1.798 8.303 2.824 4.202.894 8.11 1.303 3.161-2.012 6.117-4.06 2.28-1.138 3.891-1.138.587 0 1.084.15 3.718.903 1.593 5.821l9.051 1.455q.543-4.008-4.657-7.25-5.3-3.347-12.133-6.076-4.916-2.063-9.439-2.65-1.158-.135-2.347-.156zM650.425 919.074q-.675 0-1.14.025-3.38.144-5.845.605-3.363.631-4.695 1.108-3.845 1.265-4.742 2.785-1.205 1.686-.747 5.087 3.932 1.204 6.369 1.793 2.396.59 4.827.995.268-2.105-2.216-4.229-1.184-.876-2.44-.927-.094-.008-.199-.008-1.172 0-3.586 1.064-.094.016-.179.016-.572 0-.72-.735-.63-3.397 6.184-3.877l.583-.054 4.888 9.093q4.178.538 8.45.538 1.172 0 2.353-.04 3.904-.195 7.409-1.024 2.945-.648 7.915-2.327l1.105-.371q-3.692-4.131-6.381-6.037-1.96-1.281-2.408-1.416-1.692-.776-3.521-1.17-1.382-.356-4.536-.624-4.503-.27-6.728-.27z" fill="#9b9898"/><path d="M650.425 919.074q-.675 0-1.14.025-3.38.144-5.845.605-3.363.631-4.695 1.108-3.845 1.265-4.742 2.785-1.205 1.686-.747 5.087 3.932 1.204 6.369 1.793 1.605.395 3.225.707-.737-1.373-1.72-1.977-.795-.436-1.866-.5l-4.387.014q-.4-.027-.827-.381-.774-.888.298-3.455.683-1.24 4.962-2.034 3.499-.535 6.25-.535 1.19 0 2.241.1 4.184.361 9.5 1.965 7.264 2.342 7.8 3.727.918 1.341-.9 3.074-.157.169-.36.357.574-.116 1.138-.25 2.945-.648 7.915-2.327l1.105-.371q-3.692-4.131-6.381-6.037-1.96-1.281-2.408-1.416-1.692-.776-3.521-1.17-1.382-.356-4.536-.624-4.503-.27-6.728-.27zM512.061 894.354l-1.202.01q-2.43.09-5.09.644-4.646.954-12.586 3.73l1.117.716q4.266 2.746 7.196 4.204.613-2.662 1.266-2.918.912-1.073 2.459-1.696 3.091-1.047 7.15-1.047 2.55 0 5.483.413 9.803 1.242 16.746 4.578 3.72 2.182 2.073 4.467-.711.951-2.327 2.02l6.291 1.011q.543-4.008-4.657-7.25-5.3-3.347-12.133-6.076-4.916-2.063-9.439-2.65-1.158-.135-2.347-.156z" fill="#655f5f"/><path d="M650.425 919.074q-.675 0-1.14.025-3.38.144-5.845.605-2.391.449-3.756.82-.14.555-.238 1.118l-.174 1.603q-.066 1.609.275 3.161.565 2.52 1.993 4.513 2.6.555 5.234.896.976.126 1.958.222 3.213.317 6.484.317 1.173 0 2.354-.041 1.64-.082 3.208-.276.628-.692 1.18-1.498l.82-1.465q1.936-4.366.737-8.604-.892-.3-1.826-.502-1.382-.356-4.536-.624-4.503-.27-6.728-.27zM512.061 894.354l-1.202.01q-2.43.09-5.09.644l-.05.01q-.464.746-.876 1.575-.795 1.713-1.11 3.483l-.203 1.763q-.071 1.443.149 2.838 3.268 1.413 7.112 2.278 4.656.991 8.951 1.385 5.004.462 8.24.577l.657-1.197q1.764-4.024 1.198-7.902-2.828-1.395-5.99-2.658-4.916-2.063-9.439-2.65-1.158-.135-2.347-.156zM495.02 908.305q-.585-.672-.666-.828-.256-.391-.497-.901zM493.552 899.985q-.123-.305-.157-.376-.004-.008-.011-.041-.005-.027-.002-.051z" fill="#1b1716"/><path d="M493.381 899.528v.005l.005-.005z" fill="#1b1716"/><path d="M644.394 920.786q-.704 0-1.58.108l.035.619q.077 2.13.387 3.746l.01.018-.006.001q.51 2.645 1.645 3.907.47.596 1.06 1.1l-.014-.026.02.036q.253.21.522.404.459.33.976.612l.531.267q.6.296 1.313.516 2.786.268 5.44.28 1.394-.392 2.456-1.364.482-.464.897-1.048.24-.236 1.128-1.965.98-2.18 1.781-4.68l-.007.001q-1.79 3.33-3.32 4.572-1.15 1.015-2.895 1.015-.44 0-.918-.065-2.46-.43-4.1-2.12-.246-.186-.933-1.334-.248-.468-.442-.937-.626-1.63-.89-2.133-.46-.794-.75-.945-.71-.585-2.346-.585zM507.7 902.284l.415.369q1.862 1.66 3.138 2.483.795.575 2.629 1.426 1.926.796 3.083.988 1.118.187 1.328.173.99.036 1.51-.082 1.05-.192 1.773-.825l.406-.414q.38-.452.679-1.029.702-.994 1.615-5.785-1.445.04-2.687.232-.816.137-1.39.455-.567.324-.805.892l-.581 1.81q-.117.288-.301.525-.328.477-1.232.64-.81.172-2.283-.181-1.008-.277-1.77-.845-.665-.59-.77-.836-.267-.273-.953-2.24-.105-.235-.242-.362-.197-.129-.211-.107-.78-.152-3.351 2.713" fill="#504f4a"/></g><g><path d="M497.662 1016.3l.713 1.762q6.164 17.592 23.726 29.613 20.984 14.918 44.86 18.916 18.141 2.4 34.47-5.794 12.044-6.001 21.025-12.838 8.846-6.684 11.858-9.64 2.904-2.68 2.51-3.681l-.256-.39q-9.018-2.446-14.854-4.65-23.294-9.35-25.341-9.89-7.36-2.588-12.564-3.197-6.135-.793-13.81.466-13.224-4.066-22.14-3.976-2.557.007-5.326.185-17.21 1.593-44.871 3.114" fill="#e78f8b"/><path d="M512.443 1015.436q-6.978.435-14.781.864l.713 1.762q6.164 17.592 23.726 29.613 1.903 1.353 3.83 2.616-.213-.223-.4-.427-5.608-5.677-5.068-10.417h.005q12.27 7.632 19.471 10.037 5.504 2.326 18.709 4.566 10.223 1.513 19.409 1.513 1.725 0 3.414-.054 11.497-.459 24.503-3.542h.006q-2.921 5.226-9.487 8.276-4.323 2.271-17.906 6.787 11.834-.709 22.844-6.233 12.044-6.001 21.025-12.838 8.846-6.684 11.858-9.64 2.904-2.68 2.51-3.681l-.256-.39q-5.099-1.383-9.18-2.689-8.452-.812-14.287-1.493l-30.262-4.124q-2.647-.43-16.14-.775-3.557-.263-4.249-.413-.687-.049-4.256-.807-11.314-2.887-15.032-3.484-2.76-.564-20.13-2.878-5.482-.892-6.385-1.137-1.743-.37-4.199-1.012z" fill="#ca6e68"/><path d="M588.025 1020.556q-.426 0-.837.02-.067-.006-.152-.006-.826 0-3.435.62l-6.907 2.348q-3.325.833-4.243.833-.683.152-4.823.164l-7.425-.259q-.23-.004-.44-.004-.853 0-1.397.07-1.718.172.645 1.493 2.084 1.456 22.254 9.257l31.43 2.22 24.114-2.698-.241-.365q-9.018-2.447-14.854-4.651-15.223-6.11-21.372-8.458h-.006q2.678 1.638 6.063 3.847-7.957-2.696-11.93-3.575-3.772-.764-4.508-.764h-.05q-.976-.092-1.886-.092zM574.421 1013.565v.001q-2.136.113-4.42.4l-1.52.15 5.946-.55z" fill="#ca6e68"/><path d="M531.102 1014.148q-10.486.808-23.737 1.597l6.42 6.99q20.748 4.828 30.42 5.27 2.868.17 5.42.17 3.749 0 6.818-.367 1.644-.202 2.85-.507l1.067-.329q.943-.354 1.278-.803.482-.689-.558-1.488-1.67-1.242-5.699-2.714-.819-.357-6.528-2.22-14.212-4.374-16.89-5.314l-.856-.285z" fill="#ca6e68"/><path d="M512.45 1015.435q-6.977.435-14.788.865l.713 1.762q.619 1.766 1.352 3.476l11.683 5.594 12.258-.245q-3.772-4.847-3.457-6.14.105-1.735 2.777-1.964.717-.074 1.61-.074.706 0 1.523.047l1.943.149q2.062.2 4.404.545l2.364.365 4.816.838 14.16 2.715q2.455.458 4.599.696-5.796-2.101-26.836-5.788-7.533-1.344-19.115-2.84z" fill="#a04949"/><path d="M509.35 1015.626l-.01.001q-5.586.338-11.678.673l.713 1.762q1.484 4.236 3.629 8.148 9.145 6.186 14.654 9.212 20.18 11.78 52.524 16.819 9.502 1.512 18.49 1.512 4.969 0 9.78-.462 8.634-.614 25.13-5.432 8.743-6.606 11.732-9.54 2.904-2.68 2.51-3.681l-.256-.39q-.642-.173-1.268-.346-2.18.508-3.917.508-.617 0-1.18-.064-.039.003-.093.003-.653 0-3.52-.468l-11.548-2.516-7.148-1.289q-7.465-1.287-31.327-4.243l-.006.001q.92.809 4.001 1.396l15.784 2.122q6.204 1.112 7.306 1.891 4.5 1.466-1.798 7.692l11.844.52 8.576 1.877-23.429.984-82.199-14.441-7.296-12.249z" fill="#a04949"/><path d="M508.321 1020.065l1.616 7.68q8.805 7.592 15.569 10.224 9.355 3.894 21.384 6.345 17.96 3.69 28.693 4.398 4.093.277 8.194.277 5.881 0 11.777-.57 19.595-1.895 26.24-4.019 6.145-1.717 10.828-4.53 1.002-.874 1.692-1.551 2.904-2.68 2.51-3.681l-.256-.39q-1.516-.41-2.942-.815-.822.818-1.723 1.095-1.16.596-4.204.596-1.131 0-2.523-.083-11.627 5.378-16.306 6.057-2.233.487-4.634.744l-2.45.185q-.996.047-2.027.047-1.555 0-3.188-.107l-.095.001q-1.412 0-8.45-1.029l-18.676-3.37q-3.197-.526-6.385-.896-3.188-.356-6.326-.554l-17.79-.865q-5.496-.351-10.047-1.486-9.388-2.034-20.476-13.703z" fill="#7d3434"/><path d="M521.207 1029.39l-.101-.805q-.704-5.625-.362-6.823.348-1.967 1.949-1.894.393.007.934.177l1.857.854q.432.193.886.23l.584-.034 1.973-.407q.872-.105 1.16-.086.108-.127 5.359.605.63.097 3.212-.038.71.02 1.184.106.641.087 1.898.494l4.905 1.756q1.279.373 1.59.376.52.062.947.037 2.675-.366 3.674-.308 2.095.042 4.73.508 2.635.465 4.03 1.209.324.117.792.76l.369 1.494q.117.096.777-.017 2.313-.55 3.497-.696 1.11-.112 1.693-.017.293-.02 1.446.425 3.018 1.866 4.076 1.99.6.11 1.475.083 3.688-.336 4.371-.28 1.511.055 2.682.414 2.203.623 5.694 2.47-1.265 5.866-4.958 7.962-3.178 1.684-10.718 1.355-2.732-.095-7.317-.447l-29.862-6.48-14.426-4.973" fill="#e78f8b"/><path d="M520.547 1039.541q-1.03 3.418 2.358 7.176 1.203 1.517 4.505 4.531 18.672 11.846 39.55 15.343 1.66.22 3.303.35-1.806-.598-3.548-1.322-1.252-.393-7.019-3.388l-20.426-12.117q-4.594-2.698-18.718-10.573z" fill="#faaca8"/><path d="M541.569 1052.234l3.863 8.3q10.456 4.203 21.529 6.057 4.109.543 8.125.543h.235q1.514-.131 2.91-.333 1.99-.292 3.75-.728.993-.147 4.86-1.564 3.764-1.475 9.238-4.93l-.006.001q-9.008 3.177-14.26 4.003-2.099.353-4.255.486l-2.175.063q-2.204 0-4.462-.3-2.273-.31-4.626-.923l-2.37-.676q-2.387-.744-4.832-1.708-6.098-2.356-17.519-8.291z" fill="#faaca8"/></g><g><path d="M514.984 1025.423l.106.535q.887 4.394 1.742 4.76.84.888 3.516.126.757 4.17 2.648 4.592 2.853.672 2.99-1.43 1.048 4.577 3.888 5.28 2.646.917 4.717.454 1.657-.461 2.715-2.178 1.07 4.732 8.013 5.346 3.382.1 4.027-3.524-.716 4.125 2.19 5.565.768.425 3.446.858l6.781.707q.684.07 1.114.034 1.294.14 2.748-2.96.144 2.67.81 3.324.668.799 2.992.93 6.587.61 8.898-.002 2.173-.432 3.1-3.022-.467 2.055 4.516 2.885 5.044.42 6.537-2.215 2.315 2.539 4.747 2.79 2.734.499 4.807-2.9 2.308 2.283 4.834 1.979 1.435-.373 3.22-2.757.137 1.068 3.026.084l3.155-1.923 4.11-6.792q-.743-2.713-3.898-2.493-3.377.03-3.757 2.74.343-3.606-2.76-3.482-2.525-.151-3.86 3.55.883-2.401-.267-3.531-2.015-1.84-4.118-1.436-3.326.51-7.468 9.327-.529-5.487-.953-7.686-.347-1.54-.878-1.869-3.636-2.085-6.448-.815-1.952 1.032-3.197 6.4-.526-5.618-1.288-7.193-.807-1.676-4.048-2.225-3.893-.709-6.469 1-3.14 2.48-4.73 7.343.193-9.95-5.03-10.63-2.992-.719-6.172.974-2.494 1.554-5.377 6.15-1.057-4.95-2.273-6.257-1.352-1.796-4-2.142-2.695-.278-4.248 1.437-1.162 1.088-2.002 5.756-1.2-8.977-5.833-10.66-2.422-.175-3.72 1.983-1.256 2.102-1.49 6.564-2.192-5.296-3.456-6.58-.665-.667-1.36-.117-.684.561-1.63 2.652-2.546-5.035-3.09-4.785-.227-.129-.605.251-.223.184-.72 1.56l-1.583-.877-1.685 4.61 3.02-.065" fill="#fff"/><path d="M516.428 1019.912q-.197.003-.476.283-.223.184-.72 1.56l-1.583-.877-1.685 4.61 3.02-.065.106.535q.887 4.394 1.742 4.76.446.472 1.41.478h.014v.001h-.007.035q.228-.001.484-.028h-.005l.02-.002q.686-.073 1.565-.323.581 3.201 1.83 4.194-.226-.633-.432-1.368-2.022-9.165-.434-9.225l.006.001h.016q.215 0 .486.156 1.566 1.028 2.722 3.832.361.284 1.243 6.38.17-.333.2-.808.63 2.751 1.908 4.103-.714-1.257-.905-2.726-.864-4.113.505-9.939.96-3.528 2.63-3.528.368 0 .772.173 2.622 1.681 3.892 6.109.837 1.776.965 11.018.894-.583 1.554-1.654.225.997.712 1.811-.25-2.182-.16-5.193.67-7.702 4.86-7.702 1.423 0 3.25.887 2.29 1.97 2.46 5.09.406.244-.229 9.449.778-.8 1.09-2.234l.006.001q-.197 1.38.027 2.445.193-2.889.783-6.252 1.275-9.95 9.967-9.95.166 0 .335.004 3.365.152 4.264 4.775.29 1.035.29 4.474-.742 7.213-.973 10.93.792-.707 1.637-2.509.144 2.67.81 3.324.142.17.358.31.05-5.176.716-8.752 2.353-9.299 6.846-9.907 5.028.116 6.868 5.138.46 2.582.169 4.489-.996 5.323-1.6 9.013 1.033-.76 1.606-2.313h.006q-.153.871.689 1.517.105-.933.257-1.966 1.868-11.733 4.814-11.733h.03q2.736.025 4.497 2.645 1.473 1.718 1.244 5.584-.128 3.534-3.318 6.564 2.009-.509 2.861-2.013.277.304.555.575 1.061-3.177 3.629-7.073 3.23-4.634 6.285-5.145l.11-.004.006.001q3.553.022-2.104 12.22-.838 1.603-2.286 2.197 1.853-.413 3.359-2.881 2.026 2.004 4.22 2.014l.013.001v.001h-.006.032q.124-.001.25-.008h-.007.008q.164-.01.324-.03 1.435-.372 3.22-2.756.071.556.888.556h-.017l.033.002.044-.001H611.043q.746-.023 2.07-.473l3.154-1.923 4.11-6.792q-.686-2.504-3.426-2.51-.249.002-.472.017-3.377.03-3.757 2.74.332-3.486-2.556-3.486-.1 0-.203.004-.1-.006-.197-.006-2.362 0-3.642 3.498.846-2.357-.289-3.473-1.65-1.507-3.36-1.509-.384.001-.758.073-3.326.51-7.468 9.327-.529-5.487-.953-7.686-.347-1.54-.878-1.869-2.26-1.296-4.201-1.296-1.183 0-2.247.48-1.952 1.033-3.197 6.401-.526-5.618-1.288-7.193-.807-1.676-4.048-2.225-1.142-.208-2.17-.208-2.479 0-4.299 1.207-3.14 2.48-4.73 7.344.193-9.95-5.03-10.63-.892-.214-1.801-.214-2.139 0-4.371 1.188-2.494 1.554-5.377 6.15-1.057-4.95-2.273-6.257-1.352-1.796-4-2.142-.376-.04-.73-.04-2.181 0-3.518 1.477-1.162 1.088-2.002 5.756-1.2-8.977-5.833-10.66-.182-.013-.357-.013-2.163 0-3.362 1.996-1.257 2.102-1.492 6.564-2.19-5.296-3.455-6.58-.365-.365-.739-.365-.308 0-.621.248-.684.561-1.63 2.652-2.42-4.785-3.03-4.796-.035 0-.06.011-.055-.031-.12-.032z" fill="#dcdcdc"/><path d="M520.672 1030.015l.477 3.607q.727 1.564 1.847 1.814.691.163 1.223.163 1.663 0 1.766-1.592.274 1.196.671 2.128l-.736-4.746-.13.15q-1.053 1.213-1.523 1.498-.502.327-.875.327-.125 0-.235-.036-.219-.06-.432-.22-.11-.03-.63-.66-.518-.67-1.418-2.433z" fill="#dcdcdc"/><path d="M516.428 1019.912q-.197.003-.476.283-.223.184-.72 1.56l-1.583-.877-1.685 4.61 3.02-.065.106.535q.887 4.394 1.742 4.76.446.472 1.41.478h.014l.028.002q.228-.002.484-.029h.002-.005l.078-.008h-.005.003q.662-.077 1.507-.317l.019.104-.26-3.836q-.746 1.2-1.717 1.2-.648 0-1.395-.532-1.272-1.926-.76-5.014.102-.33.355-.33.263 0 .691.36.467.278 2.577 3.35.842-3.725 1.826-3.725.213 0 .433.174 2.322 2.218 4.179 9.144-.423-5.41 1.663-9.544.816-1.392 2.435-1.392 1.008 0 2.326.54 4.014 2.525 4.216 15.807.308-7.986 2.36-10.956 1.584-1.895 3.884-1.895 1.035 0 2.216.384 4.227 1.416 4.022 11.171.399-4.532 3.49-7.727 3.043-3.343 6.505-3.343.733 0 1.485.15 6.22 2.08 4.912 14.49 2.16-7.98 4.415-9.786 2.367-1.963 5.668-1.963 1.05 0 2.196.198 2.857.68 3.325 3.24.61 2.632.322 10.644 1.721-6.895 3.368-8.986 1.843-2.2 4.538-2.2.279 0 .567.024.054-.003.108-.003 1.55 0 2.33 2.278.684 1.867 1.103 9.65 5.258-10.702 9.32-10.702.429 0 .844.119 2.473.94.88 6.325-.943 3.63-3.483 8.155.37-.464.72-1.04 2.027 2.005 4.22 2.015l.014.002h.026q.12-.001.239-.008.168-.01.336-.03.547-.142 1.146-.577-2.196-.412-2.671-1.899-.273-4.09 2.891-6.769 1.33-.914 3.743-1.299l.006.001-2.093 8.047q.098-.127.198-.26.07.55.871.556h.017l.014.002-.024-.001.026.002.02-.002-.005.001h-.015.028-.007l.023-.001q.755-.023 2.078-.473l3.155-1.923 4.11-6.792q-.687-2.507-3.432-2.51l-.032.002q-.21 0-.434.015-3.377.03-3.757 2.74.332-3.486-2.556-3.486-.1 0-.203.004-.1-.006-.197-.006-2.362 0-3.642 3.498.846-2.357-.289-3.473-1.65-1.507-3.36-1.509l-.013.001q-.371 0-.745.072-3.326.51-7.468 9.327-.529-5.487-.953-7.686-.347-1.54-.878-1.869-2.26-1.296-4.201-1.296-1.183 0-2.247.48-1.952 1.033-3.197 6.401-.526-5.618-1.288-7.193-.807-1.676-4.048-2.225-1.142-.208-2.17-.208-2.479 0-4.299 1.207-3.14 2.48-4.73 7.344.193-9.95-5.03-10.63-.892-.214-1.801-.214-2.139 0-4.371 1.188-2.494 1.554-5.377 6.15-1.057-4.95-2.273-6.257-1.352-1.796-4-2.142-.376-.04-.73-.04-2.181 0-3.518 1.477-1.162 1.088-2.002 5.756-1.2-8.977-5.833-10.66-.182-.013-.357-.013-2.163 0-3.362 1.996-1.257 2.102-1.492 6.564-2.19-5.296-3.455-6.58-.365-.365-.739-.365-.308 0-.621.248-.684.561-1.63 2.652-2.42-4.785-3.03-4.796-.036 0-.06.011-.055-.031-.12-.032z" fill="#b6b6b6"/><path d="M606.252 1047.392l.013.001.026.001h-.026l-.013-.002zM549.41 1035.941q-.059.717-.05 1.468.04-.756.056-1.468z" fill="#9b9898"/><path d="M609.766 1032.728q-2.304 0-3.58 3.33.084-.262.146-.508l-.006.001q-2.123 4.905-4.753 10.52.234-.324.459-.693 2.026 2.004 4.22 2.014l.013.002h.026q.119-.001.238-.008h.01q.162-.01.327-.03.09-.023.183-.055-1.095-.107-1.963-1.519-1.056-2.044-.25-4.69.454-1.872 2.472-5.034 1.267-1.979 2.926-2.748.206-.04.388-.04 1.843 0 1.235 4.089-.46 2.682-2.036 7.586.132-.167.265-.345.06.467.646.542 1.107-2.102 2.026-3.624 2.275-3.593 3.117-3.976.482-.35.893-.35.076 0 .15.013l.21.069.379.292.337.467q.299.522.542 1.226l1.992-3.29q-.686-2.501-3.42-2.51l-.018.003-.025-.001q-.212 0-.436.015-3.326.029-3.745 2.66.286-3.406-2.568-3.406-.1 0-.203.004-.1-.006-.197-.006z" fill="#9b9898"/><path d="M606.252 1047.392l.013.001.026.001h-.026l-.013-.002z" fill="#9b9898"/><path d="M606.252 1047.392l.013.002h.026-.026l-.013-.002zM516.428 1019.912q-.197.003-.476.283-.223.184-.72 1.56l-1.583-.877-1.327 3.632c.092.323.181.642.274.965l2.388-.052.106.535q.887 4.394 1.742 4.76.446.472 1.41.478h.014l.028.002q.225-.002.477-.028l.078-.009q.66-.075 1.509-.317l.02.114.012-.102c.14-1.33-.036-2.842-.213-4.352-.192 1.066-.383 2.131-1.062 2.582a1.308 1.308 0 0 1-.724.216c-.619 0-1.336-.426-1.83-1.568-.706-1.636-.951-4.744-.678-5.75.077-.28.193-.397.338-.397.374 0 .934.775 1.467 1.508.74 1.017 1.427 1.952 2.114 2.888l.374-2.294h-.005q-.252.46-.514 1.04-2.42-4.785-3.03-4.796-.036 0-.06.011-.055-.031-.12-.032z" fill="#9b9898"/><path d="M518.242 1031.196h.014l.028.002-.028-.001-.014-.001z" fill="#9b9898"/><path d="M616.94 1033.46q-.224 0-.46.016-3.327.029-3.746 2.66.054-.694-.017-1.246l-2.676 9.77v.001l-.01.012-.28 1.046q.183-.504.361-.98l-.002-.01.005.002q2.057-5.492 3.578-7.259.72-.856 1.718-.856.129 0 .262.014 1.216.21 2.979 1.724l1.61-2.73q-.766-2.157-3.304-2.164z" fill="#1b1716" fill-opacity=".647"/></g><g><path d="M704.526 897.347l-7.92-5.518q-3.844-2.533-8.885-4.82-1.739-.75-3.788-1.438l-2.15-.666q-2.238-.648-4.92-1.205-5.79-1.25-15.846-2.055-8.964-.746-19.85-.427-6.483.213-11.21 1.387-3.594.993-5.347 2.437-2.487 2.202-3.42 4.784 2.49-3.306 4.743-4.288 2.073-1.1 8.237-1.96-7.231 1.87-9.096 3.897-2.177 1.832-3.028 7.677 3.155-1.438 5.958-.945 2.762.25 11.465 3.068 28.478-1.737 40.479.472 6.588 1.04 13.496 4.425 5.3 2.612 13.047 8.6l-1.965-13.425M482.814 859.857l1.441-.574q5.809-2.412 11.263-3.901 4.47-1.206 9.09-.903 2.828.105 8.97 1.533l-8.155.007q12.602.135 30.407 7.046 14.966 5.975 18.316 10.713 3.812 3.831 2.662 13.195-.368-5.399-3.286-8.51-2.43-3.04-12.76-9.942 9.907 7.032 12.238 10.08 2.799 3.133 3.152 8.464-5.969-3.579-8.252-4.456-2.408-1.04-5.82-1.295l-11.989-7.338 11.879 7.804-13.787-1.052q.662.94-.131.73-.559-.117-2.416-1.06-6.2-3.374-8.856-4.706-1.878-.944-3.862-1.826l-1.985-.838q-3.599-1.625-8.59-2.298-4.187-.3-7.878 1.49-3.012 1.374-7.664 5.314l-3.987-17.677M617.942 928.73l-.244-.113q-2.873-.815 7.317-5.07 10.83-4.477 18.745-6.062 5.6-1.1 10.051-.74 2.227.169 4.281.664 1.574.285 4.943 1.726 2.159.968 5.146 2.96.704.368 9.517 6.997 2.736 1.972 5.602 3.52 4.257 2.46 14.822 6.112-6.476-.33-12.476-1.167-1.977-.303-3.83-.739l-1.814-.477q-1.778-.515-3.38-1.217-3.177-1.442-5.638-3.616l-6.964-6.617q-1.157-1.031-2.408-1.892-3.34-2.329-8.273-2.991-6.892-.89-16.715 1.481-7.228 1.747-14.36 4.516-3.244 1.29-3.963 1.838-.748.5-.359.888M543.567 913.285l4.001 1.342q.188-1.758-.341-2.448-.356-.657-4.05-3.911-5.126-4.518-9.86-7.885-3.463-2.484-7.13-4.446-9.229-4.897-18.951-3.54-5.56.594-13.796 3.947-3.756 1.598-7.081 3.532-1.651.96-3.125 1.969l-1.418 1.013q-3.59 2.532-7.335 7.362-2.855 3.798-8.903 14.07 13.162-12.96 22.452-18.187 13.65-7.704 24.289-9.423 3.658-.524 7.696.318 4.053.878 8.937 3.44 10.83 6.013 16.253 10.796 4.015 3.388-1.638 2.05" fill="#1b1716"/><path d="M683.978 925.83l-1.046-.965q-8.293-7.78-14.558-10.18-1.507-.641-3.106-1.188l-1.611-.523q-1.63-.5-3.29-.903-5.064-1.212-9.682-1.534-4.747-.266-7.573.144-3.203.386-6.417 1.304-5.717 1.48-19.936 7.856 12.066-5.308 19.117-7.023 7.62-1.79 15.267-1.015 4.245.35 8.706 1.358 4.46 1.008 8.678 2.843 5.636 2.34 15.45 9.826M483.067 894.697l1.31-.675q3.838-2.075 8.488-3.703 3.137-1.064 7.086-1.682 4.043-.614 9.093-.619 5.48 0 10.951.742 9.295 1.24 14.78 4.535 5.041 3.026 9.518 9.277-4.555-5.969-9.607-8.759-1.443-.797-3.169-1.462l-1.81-.626q-1.328-.41-2.805-.745l-1.505-.317q-1.538-.297-3.173-.523-.783-.156-5.037-.525-3.449-.248-6.87-.246-6.125.036-10.308.602-3.167.306-8.64 1.777-4.449 1.357-8.302 2.95M577.521 990.995l.503-.616q1.768-2.147 2.628-2.946 1.438-1.325 1.786-1.52.633-.46 1.332-.845l.718-.36q1.353-.613 2.843-.92 3.491-.68 5.725.145.777.358.996.62.318.305.473.644l.115.337q.073.341-.015.656t-.338.562q-.505.513-1.635.522-.183.038-1.578-.156l-3.169-.582q-.667-.112-1.328-.184-1.748-.184-2.904.093-.693.158-1.319.443l-.613.312q-.597.34-1.148.77-1.626 1.34-3.072 3.025M560.663 982.923l-.209-.38q-.597-1.149-1.454-2.202-.585-.698-1.43-1.3-.864-.6-2.023-1.065-.574-.232-1.186-.422-.3-.124-1.857-.47-2.045-.362-3.125-.267-.48.026-.899.1l-.402.084q-.385.096-.703.233-.961.42-1.23 1.136-.146.637-.062.78.05.27.198.532.731 1.153 2.55 1.376.648.088 1.742.065.888-.018 3.696-.219 1.117-.052 1.308-.042.664-.033 1.807.163.924.205 1.58.584.962.583 1.699 1.314M542.219 982.698l-.698-.502q-3.885-2.763-5.65-4.472-1.198-1.216-1.332-1.452-.753-.96-1.172-1.876-.815-1.843-.57-3.352.267-1.67 1.654-3.636-1.062 2.22-1.226 3.81-.162 1.391.601 2.964.395.795 1.103 1.692.125.206 1.26 1.42 1.338 1.449 6.03 5.404M599.32 992.393l.623-.058q4.081-.292 6.626-1.453 2.327-1.035 3.919-3.235.77-1.105 1.2-2.53.159-.312.43-2.31.282-2.88-.255-8.23.064 2.704-.021 5.22-.066 1.667-.31 3.11-.364 1.731-.513 1.981-.441 1.195-1.13 2.109-1.39 1.792-3.616 2.875-2.507 1.253-6.954 2.521" fill="#1b1716"/><path d="M673.292 928.517q1.25-.64 2.034-1.715.623-.928.738-2.16.026-.459.006-.467-.784 1.299-1.443 2.022-.52.557-1.198.764zM672.293 926.074q.642-.337 1.024-.864.391-.457.631-1.227l-.799.915q-.247.26-.413.405-.515.43-.99.59zM669.87 924.405q.592-.367 1.087-1.095.47-.714.657-1.624-.018-.015-.147.151-.63.89-.74 1.003-.187.22-.46.444-.537.397-1.264.437zM666.213 922.143q1.803-.564 2.45-2.187-.012-.013-.219.098-.914.532-1.033.574-.505.251-.783.328-.843.288-1.592.17zM662.885 919.996q1.417-.556 1.972-1.345-.025-.018-.178-.005-.829.092-1.478.134-.237.019-.762.008-.676-.006-1.609-.24zM657.637 918.707q.994-.117 1.873-.6.636-.348 1.326-1.27-.027-.002-.08.014-.651.22-.821.252-.22.057-.666.114-.195.022-.643.03-1.06-.02-1.268-.01-.337.01-.62.054-.394.046-1.246.365zM675.235 932.148q-2.964 2.31-7.577 2.836-2.38.206-4.94-.072-2.52-.278-6.085-1.009 5.277.935 9.014-.038 5.511-1.402 8.236-4.172z" fill="#1b1716"/></g><g><path d="M753.879 1083.357q24.988-19.507 28.791-31.53 11.426-27.473 4.017-39.083-4.935-7.232-13.75-7.872-9.174-.212-15.959 7.46-6.752 6.38-12.334 25.905-3.455 10.446-3.027 25.567z" fill="#1b1716"/><path d="M770.909 1103.821q2.84-17.019 4.463-22.275 1.022-4.432 8.917-25.822 1.11-3.149 1.829-6.578 1.033-4.377-2.954-6.255-6.989-1.768-13.133.46-10.942 3.709-19.21 10.03-12.537 9.918-22.814 31.215z" fill="#1b1716"/><path d="M336.791 1015.553q4.045-30.776 11.713-48.123l21.682-48.14q15.187-28.242 21.739-42.43-14.954 35.934-18.278 48.093-7.872 24.984-10.324 45.714z" fill="#8a5a43"/></g><g><path d="M506.97 1028.137zm-159.143-30.9q-.079.933-.139 1.864-.24 3.725-.188 7.42l.125 3.686q.381 6.812 1.386 11.749.71 3.414.915 4.11l2.767 9.27q-1.841-12.84 2.414-30.037l.11-.464h.003q-1.343 16.178-1.548 33.791v.001l-.976-3.268.258 1.633q.298 1.704.704 3.345h-.004l-.003.352q-3.883 7.197-7.3 13.957-1.546-6.907-2.334-13.565-.839-7.082-.82-13.883.035-13.601 3.497-26.077.546-1.958 1.13-3.885zm422.418-12.554q17.408 31.43 12.409 49.086-3.165 15.293-21.778 40.843v.001q-.84-2.028-1.525-4.548h-.008q20.486-29.479 10.894-85.382zm8.94 76.968q-5.362 14.392-7.31 26.274-.934-.67-1.893-1.354-3.113-2.595-5.892-6.411h-.008q12.115-11.285 15.096-18.509zm9.875 65.21q2.207 2.137 5.11 7.226 1.629 2.704 3.595 9.337v.001l-2.454-3.116h-.008q-2.252-5.63-6.251-13.448zm9.244 25.972l1.6 1.882h-.009q.12 1.135.225 2.347.426 5.002-2.679 24.56-.185 3.379-.08 5.765-2.092-2.446-3.876-4.897l-.008.001q-.051-1.306.011-2.539l4.42-20.446q.445-3.523.388-6.673zm-215.006-452.48q-13.465 0-28.952 2.977-48.656 6.943-93.8 61.105-67.362 90.125-93.013 173.181-1.93 6.246-3.594 12.83h-.003l-11.606 17.166q-5.973 10.313-9.167 20.337-6.976 22.375-5.609 42.336 1.011 13.749 7.597 26.756l-.003.002q-18.626 37.333-22.694 61.04-3.09 23.03 4.743 50.296-8.687 31.054-10.794 46.555l-10.701 105.26q-4.217 24.378-36.186 34.306 1.77.112 3.473.112 23.866 0 34.835-22.04h.003q-7.9 21.201-24.564 26.26 19.132 2.462 31.499 2.462 7.618 0 12.669-.934 14.013-.698 31.384-21.253h.003q-17.6 25.717-36.89 34.92 16.208 14.775 27.803 14.775 11.81 0 18.833-15.327h.004q-6.046 17.412-14.924 22.15 3.204.126 6.11.126 17.46 0 24.204-4.542 18.763-12.317 23.083-22.73l.004.001q-6.095 22.826-10.063 24.582 9.55-.847 18.557-4.238 19.799-9.82 25.943-38.038 4.734-12.563 8.836-71.48l6.126-163.637 3.705-22.59q9.257-17.753 11.414-37.851l-.589-16.262q-10.098-48.948-9.046-49.002l.004.001q.012 0 .026.007-1.337-12.17.366-24.567-1.193-7.777 26.836-82.866 5.174-19.14 9.481-47.502l29.202-46.826q6.697-9.533 17.26-16.59 26.107-15.518 61.641-15.518 9.29 0 19.225 1.06l3.806.397q51.303 18.754 65.77 65.66 5.383 16.542 5.69 35.894 1.245 5.214-3.711 65.408-.363 5.979.551 15.955 1.783 13.118 7.386 27.118l6.908 17.067.005.001q-7.355-24.089-7.81-32.744l.008.001 9.836 31.758-13.549 43.177 12.87-28.324 1.237 9.389-4.436 20.177-.451 17.044q-2.452 1.56-5.141 1.56-4.639 0-9.983-4.64-9.277 32.61-44.903 64.402l-8.298 80.79-.849 19.59q.702 12.074 2.453 16.824l15.52 41.87q2.934 16.046.126 32.253-2.029 11.967-5.83 21.206l-20.923 46.094q-3.822 8.318-16.741 8.318h-.021q4.287.598 7.997.598 14.73 0 20.354-9.42h.006q-3.025 9.153-5.442 13.035-3.994 8.608-15.183 8.608-6.212 0-14.642-2.654h-.006q10.83 6.322 18.86 6.322 14.857 0 20.124-21.642h.007q8.897 23.116-7.668 35.738 14.434 1.03 21.006 1.03 1.215 0 2.162-.036 1.917.15 3.789.15 23.574 0 39.885-23.677 27.741-4.335 40.957-9.273h.007q-9.737 5.293-14.187 11.064-2.924 1.518-8.732 2.272 19.747-1.216 26.852-4.582 12.289-5.49 23.129-22.662 4.43-7.473 10.393-45.842l.008.001q1.567 34.696-6.007 44.561l35.663-25.231q4.865-4.828-.742-41.485l.008.001q20.615 28.364-9.716 58.074l11.984-8.727q21.452-13.69 20.613-40.25-3.264-25.354-31.176-75.367 2.355-.237 4.869-.237 25.313 0 66.683 24.055 30.537 17.194 33.875 41.387 1.126-20.84-13.527-35.468-6.917-6.505-18.224-13.074-32.178-17.067-48.21-26.183l-.008.001q-.618 4.487-2.256 9.001 1.26-4.898 2.037-9.126h.009l.21.12q.225-1.63.314-3.258h-.008q-.227 1.518-.524 3.133-16.362-9.313-15.661-10.225-6.803-5.247-12.17-10.518h-.009q.687-4.96 1.714-8.143 4.832-13.299 6.118-17.452l.008.001q16.417 20.01 16.261 22.716 4.819 10.132 4.276 20.4.922-6.215.661-10.784-.121-10.254-6.955-22.005l-13.048-16.567h-.008q.932-6.772.308-10.816-1.714-11.555-5.581-18.977-1.987-4.08-4.617-7.866-.913-2.076-9.333-10.683h.008q13.409 7.375 20.096 19.27l2.927 6.234 2.089 6.8 1.248 7.365.41 7.93-.43 8.498q.537-2.284 1.332-11.353.208-3.49.1-6.588-.214-6.196-1.689-10.824-4.258-14.264-18.558-29.595-5.903-6.224-18.683-15.917h-.008q.286-2.456.712-5.033-1.005-1.26 14.679-56.387 3.157-14.233 2.208-27.658-.393-13.5-10.833-42.387 1.007-13.233-2.972-27.568l-16.412-54.187.008.001q23.488 58.806 21.91 85.34 1.868-12.457.01-26.878.952-10.225-33.662-106.523-9.056-26.53-24.563-52.16-33.93-48.568-62.41-60.923-8.176-3.52-16.884-3.52-8.033 0-16.518 2.995-15.729-15.632-37.825-18.87-7.601-1.155-15.988-1.155z" fill="#1b1716"/><path d="M583.298 700.353l-.01.002c-8.98 0-18.56 1.369-28.942 2.975l-.147.02a118.929 118.929 0 0 0-21.637 5.517l-.341.126-.006.001c-24.896 8.963-49.358 26.828-71.668 55.44l-.231.31-.005.001c-45.61 58.556-75.209 116.62-92.348 171.488v.001l-.43 1.382a255.395 255.395 0 0 0-3.594 12.83l-11.61 17.166q-1.34 2.315-2.54 4.615l-.004.001c-2.772 5.294-4.993 10.53-6.622 15.72l-.172.554c-1.75 6.25-.384 13.42 1.858 20.61q.752-4.051 1.845-7.991.544-1.95 1.125-3.87l.003.002q-.074.924-.134 1.848-.24 3.725-.188 7.42l.125 3.686q.308 5.507 1.024 9.788c1.413 3.836 2.734 7.538 3.6 10.956q-.69-11.311 2.858-25.652l.104-.442.004.001q-1.338 16.167-1.543 33.768l-.413-1.38h-.003c-.011.342-.032.675-.07 1q.216 1.058.472 2.09-.005.177-.007.353-3.883 7.197-7.3 13.957-.523-2.336-.959-4.643c-1.237 1.992-1.683 4.19-.24 7.039q-1.727 3.46-3.329 6.803h-.006c-10.494 21.81-17.16 39.856-19.363 54.238l-.047.353-.003.001c-2.226 14.945-.454 31.31 4.52 48.982q.135.48.273.96c-5.792 20.703-9.39 36.221-10.794 46.555l-10.701 105.26c-2.812 16.252-14.873 27.687-36.186 34.306 1.18.074 2.337.112 3.473.112q23.853 0 34.823-22.016h.003q-7.898 21.18-24.552 26.236c12.755 1.641 23.254 2.462 31.499 2.462 5.079 0 9.257-.642 12.669-.934 8.726-.748 18.474-6.715 29.187-18.722q1.084-1.215 2.178-2.509l.003.001q-17.59 25.698-36.87 34.897c10.805 9.85 20.072 14.775 27.802 14.775q11.796 0 18.818-15.294h.004q-6.039 17.383-14.909 22.117c2.136.084 4.173.126 6.11.126 11.64 0 19.685-1.548 24.204-4.542 6.81-4.51 12.216-8.785 16.18-12.882q1.218-1.26 2.252-2.494c6.545-20.102 9.889-40.656 12.16-61.464.786-7.214-.118-33.837-3.43-80.31-.722-10.125.52-20.394 2.744-30.65 5.042-23.246 17.484-52.128 36.907-86.736l-.005.001c-28.717 24.173-45.712 43.402-52.831 56.762-7.316 13.728-11.928 35.06-12.047 65.003-1.994-17.447-2.114-31.45.377-41.84 3.557-14.835 8.546-25.784 14.235-33.03-.147-1.294 14.687-19.28 44.504-53.957l11.981-17.089c7.458-11.635 11.577-23.791 13.649-36.276.405-2.444.862-8.519.074-18.55l-.017-.081h.005c-.23-3.026-.54-6.399-.92-10.12l-7.93-37.113h-.004q-.018 1.538 1.255 8.718l-.004.001q-1.301-7.328-1.264-8.78l-6.7-31.384c-1.077-3.315-1.202-12.812-.745-28.505.548-18.804 10.492-48.732 30.2-89.774l-.004.001c-21.623 39.504-33.47 69.455-37.491 89.494-4.073 20.293-4.316 50.753 1.21 91.802-5.41-26.639-6.973-48.457-8.181-65.325-1.568-21.881 8.337-57.84 33.186-108.218h-.004c-21.984 29.941-36.318 63.12-41.957 99.704-2.688 17.441-2.803 30.12-2.241 37.957.186 2.607.778 10.227 2.613 22.845l8.295 47.946c.79 7.94-.049 14.768-1.404 20.773-2.134 9.458-10.744 20.652-26.956 33.35 11.468-15.454 15.838-45.319 13.11-89.596h-.005c-1.742 43.086-11.957 75.672-30.657 97.755 10.379-15.444 17.594-32.23 21.645-50.358 2.18-3.978 4.42-37.268 8.756-99.739 1.02-14.677 4.242-27.612 7.211-39.107 5.007-19.384 16.418-49.52 34.656-90.304h-.005c-19.646 34.9-32.151 61.782-37.936 80.52-2.677 8.671-5.5 17.722-7.143 27.452-8.77 51.936-13.163 78.367-14.098 79.142-4.821 19.224-12.16 39.981-22.016 62.273 10.008-28.683 16.696-52.33 20.063-70.94.013.018.027.027.042.027.993 0 6.288-39.95 16.936-119.712a253.277 253.277 0 0 1 8.423-39.223c6.464-21.602 16.2-40.772 28.895-57.606l-.005.001c-18.816 24.278-31.583 49.591-39.345 75.64-.861 2.89-3.998 13.339-6.07 32.03-5.778 52.135-8.34 80.043-9.092 83.71-3.805 18.544-6.383 29.1-7.53 32.012-5.002 12.684-10.35 23.864-17.193 33.105l-42.428 49.757a24.736 24.736 0 0 0-2.805 5.986c.746-3.998 1.985-7.594 3.717-10.787l8.545-14.17c19.43-24.502 29.629-39.28 32.048-43.625a178.958 178.958 0 0 0 14.722-34.422c.915-2.956 3.727-13.195 4.936-31.341 3.41-51.17 5.474-79.268 6.521-84.7 3.237-16.79 7.196-33.575 14.064-49.965 20.278-48.389 52.571-90.334 98.014-124.286 18.043-13.48 42.198-19.42 71.306-19.42 2.889 0 5.83.063 8.825.19q-6.912-.934-14.459-.934z" fill="#503326"/><path d="M353.249 1037.211l.003.023.004.011.003.001-.01-.035z" fill="#613b28"/><path d="M465.353 794.265v.001q-2.441 2.896-4.751 5.896 2.321-2.958 4.756-5.897z" fill="#7e5040"/><path d="M666.035 765.323q29.593 14.329 33.201 39.09 2.773 14.736 1.117 41.17.772 6.584.882 13.531 1.245 5.214-3.711 65.408-.363 5.979.551 15.955 1.783 13.118 7.386 27.118l6.908 17.067q-7.326-24.01-7.801-32.687l.007.001 9.833 31.702-1.658 5.285q6.096 15.011 10.864 29.69 2.7 8.926 4.251 17.56l1.184 8.541q.856 8.458.073 16.5l-1.274 7.919q-1.808 7.78-5.243 15.16-.764 3.699-29.756 50.8-8.33 19.136-8.019 23.605l-.855 8.448q-.33 8.615.792 17.63.722 9.331 10.762 54.006 1.602 8.636 2.073 16.618l.026 7.752-.817 7.318q-1.261 7.089-3.82 13.567-2.558 6.479-5.932 12.655l-17.752 31.682q-6.741 13.454-9.483 30.31-2.631 16.932-2.3 36.337.123 4.93.316 9.917 1.703.044 3.062.044 1.215 0 2.162-.035 1.917.15 3.789.15.603 0 1.202-.016 4.182-23.929 9.583-39.201 4.76-12.635 11.238-21.543l28.645-35.185q7.957-12.452 10.156-29.936 1.018-15.158.236-18.945-.54-6.788-1.993-14.24-1.463-7.46-3.87-15.587-18.732-55.264-19.157-59.34-4.577-16.697-3.687-30.357 1.534-13.348 8.44-23.211 1.358-4.193 26.31-29.015 2.287-1.818 7.332-10.982 6.293-10.908 1.062-36.645h.007q7.737 30.035-.152 56.516-6.549 25.859-36.931 78.199l16.387 51.618q-5.396-28.17-2.039-43.818.523-4.29 5.01-17.87 22.013-56.375 24.715-68.892 7.43-25.071 6.279-51.294-1.471-17.143-7.084-33.942l-18.69-51.12q-7.02-22.024-7.537-26.742-3.786-18.335-5.277-36.603-.952-6.768-3.136-57.835-.44-7.036-1.092-13.169-1.9-18.268-6.16-29.591-7.765-23.428-40.608-31.068z" fill="#503326"/><path d="M728.374 1076.032l-4.414 6.041q-26.393 36.042-34.195 45.828-7.592 10.153-31.586 38.326l-5.164 6.85q-7.19 9.884-9.422 20.283-2.594 14.21.885 28.25 1.594 6.916 3.878 13.331l11.294 28.628 3.493 10.263q4.678 16.105 5.568 24.723 1.37 10.323.4 18.616-1.073 9.702-5.553 22.415 6.864-9.948 11.174-21.37 2.716-7.707 2.406-17.16-.202-4.754-1.445-10.109l-1.523-5.519q-1.808-5.683-4.316-11.82-9.47-21.977-13.124-31.758-2.362-6.39-3.907-12.53-3.19-12.314-.967-22.67 2.338-10.292 8.508-19.823 2.222-4.152 22.024-30.514 2.014-2.517 11.746-17.959 13.561-22.151 34.24-62.322M757.56 1082.26l3.646 4.484q24.61 29.171 31.76 49.16 3.056 8.871 3.552 17.755.263 4.447-.022 8.924.154 2.206-1.936 13.546-3.079 13.675-9.254 28.032-9.76 21.536-17.617 32.695-14.532 22.79-48.973 54.462 17.971-23.322 26.128-39.773 5.46-11.93 6.003-14.586 3.236-10.1 4.754-21.043 2.056-10.68 2.638-45.46-4.507 35.008-8.01 51.616-2.988 14.365-6.798 21.381-4.429 8.338-12.385 12.53l-5.257-22.86q11.264-28.12 12.284-42.844 1.843-14.606-3.695-45.144l10.327-26.601q8.04 20.618 9.202 30.135 1.672 9.658-.698 27.387l4.7-32.019-10.344-38.28q15.308 19.011 19.131 32.199 4.507 12.53 5.86 44.956 3.285-27.294.702-43.559-1.96-10.713-6.95-19.787-3.978-7.658-13.221-20.316l4.473-16.99" fill="#503326"/><path d="M758.079 1073.436l.326.53q.776 1.607 5.8 7.336 22.897 24.064 31.914 35.41 7.049 9.185 7.858 10.834 4.388 6.949 6.49 12.89 2.103 5.943 2.494 10.897.39 4.953-.36 8.936-.74 3.948-2.105 7.15-.299 1.011-5.023 10.463-.406.692-1.693 4.601-1.579 4.672-2.915 17.014-2.207-7.664-2.308-14.06.073-4.737.306-5.939 1.818-11.538 2.085-14.833.436-7.082.148-8.694-.32-6.05-2.764-12.615-2.578-6.58-6.722-13.36-.905-1.969-15.19-23.025l-5.564-9.002q-5.935-10.152-12.777-24.533" fill="#503326"/><path d="M653.629 717.382q-5.33 0-10.858 1.319-7.803 4.779-17.056 13.515 7.878-6.09 25.67-6.09 2.06 0 4.254.08l-.427-.002q-15.8 0-26.673 14.655 10.21-9.052 19.942-9.052.365 0 .73.013.412-.021.861-.021 9.379 0 34.9 9.114-20.203-5.936-32.27-5.936-8.56 0-13.026 2.986-7.579 3.278-14.034 19.167l.327.034 3.806.396q3.012 1.101 5.896 2.299 12.514-11.649 20.463-12.456 1.992-.426 4.192-.426 13.438 0 34.68 15.872-16.347-10.554-23.406-11-1.111-.16-2.3-.16-7.203 0-17.243 5.9 2.349-.096 4.595-.096 34.316 0 44.77 22.548 3.732 7.2 6.067 18.448l8.322 56.591q2.658 16.091 7.633 32.161 11.658 35.899 40.161 85.863-19.738-38.102-25.175-64.663-6.197-25.09-9.786-90.006h.008q5.466 55.129 13.813 77.398 6.828 18.71 9.09 22.237 3.35 7.416 23.904 42.871l7.212 14.288q6.78 14.334 9.145 29.372 4.42 33.996-11.516 86.767l2.454-3.514q1.74-9.248 14.475-54.008 3.157-14.233 2.208-27.658-.393-13.5-10.833-42.387.028-.364.052-.729-5.819-11.178-14.613-27.645-4.928-10.273-6.25-14.49-4.456-10.965-13.489-58.519-10.202-38.788-15.555-51.923-16.918-45.302-51.199-65.163h.007q25.022 13.946 38.325 28.915 5.602 5.91 12.608 17.182-2.67-4.817-5.567-9.602-33.93-48.57-62.41-60.924-8.176-3.52-16.884-3.52z" fill="#423732"/><path d="M786.597 1177.529l4.162 4.417q23.709 25.32 28.345 27.573 6.363 4.18 10.926 6.264 38.47 17.15 41.714 19.733 10.388 5.3 20.973 16.239 5.68 6.106 13.004 17.58-15.988-14.249-36.48-25.276-9.13-5.41-66.904-29.818-9.492-4.293-15.072-7.882-10.74-6.634-10.533-16.827.01-8.75 2.853-19.645 2.498-10.415 6.037-16.458.58-.624.975-.09.277-.257.658 3.374.398 2.446-.658 20.816" fill="#5d3b2c"/><path d="M794.97 1212.867q11.813 19.939 15.066 33.106 3.729 12.605 5.87 44.208-7.084-31.029-11.77-41.883-4.474-11.662-15.692-25.68h-.008q10.65 20.622 12.43 29.808 1.566 7.656 1.459 9.236.412 6.247-.336 12.344-2.839 22.738-16.645 40.907.045 1.927.027 3.83.649 29.32-6.213 38.256l35.663-25.231q4.864-4.827-.74-41.47h.009q20.604 28.358-9.719 58.06l11.984-8.727q21.452-13.69 20.613-40.25-3.188-24.765-29.893-73.058-5.831-6.813-12.098-13.456z" fill="#503326"/><path d="M625.969 748.968l-.363-3.299q-1.512-22.144-11.758-29.811-11.686-7.909-36.12-5.036-21.364 2.182-43.04 13.827-17.397 9.3-44.948 37.151 23.279-28.272 39.605-37.67 15.49-10.243 55.842-21.253-24.852.299-46.259 9.283-25.457 11.654-51.956 34.736-33.317 27.606-49.265 65.28-6.243 16.313-9.55 37.683 19.135-40.155 43.886-64.998-28.748 39.081-36.38 61.67-7.998 17.574-16.058 76.41 4.812-42.453 30.232-86.194 34.92-59.465 66.317-85.572 28.754-23.278 68.132-31.986-38.035 13.54-52.354 26.188-15.157 11.6-36.076 46.558 36.687-42.643 54.52-49.1 18.652-9.078 52.751 2.399-14.296-11.682-45.236-11.553 31.423-9.224 41.65-5.88 11.739 1.85 26.428 21.167" fill="#423732"/><path d="M749.694 1043.42l.496 2.35q2.942 15.352 8.085 25.132 4.35 8.754 19.153 24.594 4.603 30.662 5.992 47.547 1.383 19.441-.055 26.836-.984 9.956-8.34 23.995l-15.345-29.32-13.947 31.15-18.312 35.434q9.343-18.56 11.394-35.305 1.15-11.356-.454-25.141-1.175-11.345-5.182-33.435l13.277-47.896 3.238-45.942" fill="#503326"/><path d="M789.259 1116.807l-1.774-1.656q-7.45-6.475-12.08-14.153-3.276-5.86-3.04-13.152.308-7.34 2.786-14.831.326-1.295 2.612-7.16l7.689-17.407q1.802-4.413 3.128-9.538 2.796-10.036 4.1-36.84 1.96 6.246 2.934 14.008.275 2.662.294 5.717l-.063 3.18q-.137 3.294-.64 7.149l-.612 4.023q-.733 4.208-1.825 8.964-1.091 4.755-2.38 9.807l-5.13 20.132q-1.195 4.888-2.102 9.318-.906 4.43-1.362 8.148l-.312 3.494q-.18 3.285.084 5.873l.352 2.449q.452 2.291 1.215 4.095 2.464 5.131 6.126 8.38M690.366 1141.994l-4.003 6.132q-18.114 27.624-23.85 41.681-2.44 5.666-3.984 11.065l-1.27 5.318-.726 5.155-.148 4.983q.438 9.75 3.973 18.552 1.698 4.421 3.752 8.724 7.505 14.949 10.06 21.471l1.585 4.39q1.466 4.42 2.532 8.939 3.732 15.817 4.8 41.867 2.085-12.361 3.168-24.77.66-8.276.13-16.61-.283-4.168-.975-8.355l-.802-4.192q-.776-4.333-6.756-24.84-1.078-4.033-1.82-7.934-.74-3.901-.95-7.633l-.027-3.68q.156-3.627.98-7.064.085-1.811 3.667-9.968 3.87-8.075 14.57-21.544l-3.906-41.687" fill="#503326"/><path d="M453.155 1203.403q-9.562 59.827-11.32 65.985-7.741 37.687-12.086 50.86-7.523 28.166-25.131 56.749-4.486 14.671-7.636 16.065 9.55-.847 18.557-4.238 19.799-9.82 25.943-38.038 4.734-12.563 8.836-71.48l2.841-75.903zM343.214 987.797c-.02.051-.036.102-.051.152q-6.976 22.375-5.609 42.336 1.011 13.749 7.597 26.756-1.783 3.567-3.43 7.01a4.808 4.808 0 0 0-.093.187q1.232-.566 2.75-1.74 1.19-.957 4.026-3.963.103-1.686.198-3.364.172-2.879.23-5.352h-.003q-1.272 2.44-2.478 4.827-1.546-6.907-2.334-13.565-.839-7.082-.82-13.883.035-13.601 3.497-26.077.483-1.73.995-3.438.27-1.57.565-3.218l.467-2.74-5.507-3.928z" fill="#4a2e22"/><path d="M700.3 1129.676q-5.586 25.025-4.214 43.26.753 8.168 2.996 16.536l9.934 32.437q2.41 9.368 2.518 11.014 2.324 13.932.466 26.367-1.95 15.692-13.71 44.629 6.232-19.598 8.396-31.506 1.346-8.443 1.313-10.037.468-6.54-.08-12.907-.439-7.77-4.18-23.07-2.671-11.495-14.535-50.537h-.007q6.957 27.671 9.376 47.813 2.526 25.356.063 40.599-1.734 12.973-6.465 23.143l-5.186 9.668q-14.848 22.4-17.062 27.878-5.04 10.117-8.187 22.137-2.37 10.233-2.532 12.56-1.276 8.744-1.52 18.381-.472 7.104.532 26.946 1.479.035 2.686.035 1.215 0 2.162-.035 1.917.15 3.789.15.636 0 1.267-.018.143-1.661.29-3.315 2.016-16 2.971-18.85 1.34-6.063 3.28-11.746 3.98-11.332 10.372-21.004-.139-1.333 26.55-34.923 5.866-8.13 9.461-16.164 8.61-18.425 7.129-42.092-.28-8.683-5.04-25.836.591 0-17.123-49.865-3.103-9.326-4.96-17.203-4.072-16.114-.742-34.446z" fill="#8a5a43"/><path d="M742.365 1253.378l2.984-3.913q12.454-15.454 20.78-32.492 5.96-12.921 6.756-27.686l.17-4.9q.043-4.925-.335-9.86-.795-9.918-2.801-19.332-2.006-9.392-4.593-17.645-1.374-4.63-7.586-22.77-1.156-3.522-2.125-6.925-2.2-8.439-2.306-10.05-.555-3.306-.862-6.566-.272-1.652-.488-9.702.014-9.611.697-19.1-4.125 12.088-5.692 20.025-.91 4.53-1.212 9.211-.213 5.975-.05 7.394.112 2.61.4 5.536.03 1.182 1.266 9.772l1.3 7.818 4.572 24.965q2.376 14.338 2.667 17.457 1.681 14.948 1.617 17.873.283 5.91.092 11.562-.209 5.632-.908 10.946-.11 2.813-2.977 15.374-3.078 12.423-11.366 33.008" fill="#714936"/><path d="M659.571 1261.824l-1.736-4.445q-5.315-13.466-9.659-25.765-2.851-8.145-4.73-15.124-3.901-13.343-1.694-23.202-.004-1.248 2.887-7.991 2.668-5.461 7.472-11.982 6.497-9.432 31.541-36.628-21.327 28.515-26.945 38.27-4.137 6.762-6.5 12.342-1.182 2.804-1.954 5.456l-.68 2.642q-2.146 9.905.54 22.815 2.926 15.295 11.458 43.612" fill="#8a5a43"/><path d="M870.655 1244.074l-6.687-2.883q-44.643-19.117-62.636-28.185-15.85-8.12-17.877-12.87-1.365-2.023-2.227-4.45-.667-.83-1.713-8.631l-.365-7.441q.19-28.96-.215-31.847-.842-11.41-1.453-13.247-1.636-8.157-4.579-14.668-.688-2.289-10.707-20.613-.864-1.351-3.516-8.564-3.257-8.635-5.593-30.29-2.152-.204 1.07 5.952l1.07 1.965q19.18 30.722 24.567 40.807 9.78 18.539 11.66 25.637 4.469 12.834 4.862 28.44-.205 18.11-3.676 20.87 2.357-17.549-.347-28.402-2.012-10.481-13.801-35.601 5.646 17.92 7.258 25.495 1.085 3.945 3.91 22.36 1.188 5.975 1.58 7.101 3.023 10.243 7.286 15.632 5.978 8.614 20.326 19.395 16.763 12.467 51.803 34.038" fill="#714936"/><path d="M413.684 833.488c-20.35 35.022-35.327 69.472-45.721 102.745l-.43 1.383q-1.93 6.246-3.594 12.83l-11.61 17.166q-1.426 2.463-2.694 4.91c-2.704 5.194-4.873 10.333-6.472 15.427q-5.979 19.177-5.829 36.58l5.906 6.062q-.048-1.705-.044-3.393.036-13.601 3.498-26.077.542-1.941 1.12-3.853l.003.001q-.07.917-.129 1.832-.24 3.725-.188 7.42l.125 3.686q.381 6.812 1.386 11.749.71 3.414.915 4.11l2.767 9.27q-1.841-12.84 2.414-30.037l.099-.418.003.001q-1.332 16.156-1.537 33.744l-.976-3.267.258 1.633q.298 1.704.704 3.345-.005.176-.007.352-3.883 7.197-7.3 13.957-1.432-6.4-2.214-12.586l-.001-.01-.004.001.005.01-3.264 4.764q1.72 5.164 4.278 10.216-1.81 3.624-3.482 7.119c-.016.026-.028.052-.04.078l-.536 1.132c-10.08 21.127-16.488 38.668-18.64 52.714l-.047.36c-2.228 14.942-.455 31.306 4.518 48.975q.135.48.273.96-8.687 31.054-10.794 46.555l-10.701 105.26q-3.88 22.424-31.24 32.622l.316 1.764v.001h-.003l4.581 26.19 7.916-3.173q22.953-9.233 38.812-17.008h-.003q-4.694.704-11.32.704 6.64 0 11.33-.71 22.212-10.89 30.503-18.92l.008-.008.014-.016h.004l.083-.081q.5-.414.99-.833l.005-.007h.004q9.823-8.38 15.86-18.364 5.867-7.49 9.618-28.375 1.378-12.175-.985-25.263-1.203-6.534-3.137-13.208-14.719-43.695-14.963-46.706-3.506-13.075-2.823-25.08.99-11.96 5.25-22.758.627-3.759 16.811-34.625 1.34-2.384 5.654-13.073 5.579-14.693 9.886-35.467l-.004.001q-6.714 19.49-12.277 32.033l-21.185 40.89q-3.796 7.96-6.362 16.73-5.502 17.293-5.144 58.495-6.741-37.393-.682-59.735 1.575-8.3 9.743-28.253l20.543-44.82q3.993-10.07 5.198-18.037l-.004.001-6.896 11.957q-21.993 30.982-25.18 36.61-5.125 8.14-8.351 15.393-7.02 14.763-2.429 33.433-3.3-9.126-2.682-16.775.29-8.706 6.99-24.159l8.26-17.018 29.53-55.645q6.437-13.184 9.777-28.329l-.004.002q-8.903 22.18-14.519 30.908-3.561 5.917-7.987 11.443-24.327 27.94-23.999 29.023-7.757 11.753-14.192 29.032 6.233-26.461 21.642-46.506l-.004.001q-16.569 17.454-20.576 23.397-4.784 6.459-5.756 13.76-.276-3.07-.06-6.69.17-5.259 4.21-14.84l23.677-44.723q6.403-13.019 11.115-28.014 1.598-3.509 5.16-23.287 1.195-8.03 1.961-16.338l4.293-51.363q2.996-21.798 4.376-26.129 7.612-32.585 26.633-76.76z" fill="#8a5a43"/><path d="M341.722 1064.05a429.87 429.87 0 0 0-4.147 8.875h-.002a428.073 428.073 0 0 1 4.145-8.874zM337.348 1021.98q-.075 4.204.206 8.305.619 8.409 3.322 16.54.429 1.29.91 2.572 1.153 3.073 2.607 6.107l.883-6.107q-.68-3.705-1.139-7.336-.062-.491-.12-.98-.745-6.292-.814-12.362l-5.851-6.74zM429.472 1154.9q-19.634 33.954-23.425 50.546-3.09 11.067-3.841 23.072-.4 5.994-.468 12.132.221 30.976-.236 37.103-1.096 15.208-1.946 18.049-4.988 26.413-22.16 61.366 15.695-52.616 16.314-68.035.556-8.052-.52-13.815.624-.01-6.267-22.457-.202-.86-.392-1.744h-.004q1.91 15.674 1.55 29.631-1.334 25.217-9.928 41.255-14.82 31.7-45.388 45.453-5.346 3.953-10.832 6.57 16.207 14.776 27.802 14.776 11.784 0 18.803-15.261h.004q-6.033 17.355-14.894 22.084l.689.025q5.708-2.625 9.947-5.243 10.389-6.888 14.666-15.78.96-1.375 3.883-9.187 6.041-19.601 9.159-26.856l12.197-28.345.004.001q-5.495 30.954-10.527 44.754-4.628 14.107-18.45 38.956 23.657-25.663 28.273-38.798 8.46-17.563 9.72-45.161.509-4.259.137-28.813-2.03-49.787-1.743-57.132-.336-5.046 1.404-22.666 1.885-20.956 16.473-46.48zM365.368 1280.777q-.364.608-.737 1.225.378-.614.741-1.225z" fill="#8a5a43"/><path d="M460.685 1056.516q-11.009 21.787-19.993 32.67-2.46 4.004-32.991 36.272l-11.333 14.466q-10.601 15.34-15.567 33.018-4.918 17.708-6.09 33.728-1.483 14.97-.218 45.625l-.68 7.478q-1.805 9.714-8.177 20.559 14.198-23.711 16.41-33.262 2.481-7.96.64-18.917l.003.001q1.017 4.861 1.84 9.58-1.733-22.727 1.17-36.84 5.33-31.952 30.274-56.523h-.004q-13.008 9.193-18.185 16.148-5.42 6.542-13.602 24.345 5.634-17.288 13.216-29.325 4.51-7.538 11.502-17.294 39.355-52.946 38.546-53.07l-.005.001q-.021.002-.05.02 10.529-16.597 13.298-28.68z" fill="#8a5a43"/><path d="M384.533 1237.773l.038.495q.7 6.942 1.942 12.764-.794-6.482-1.976-13.259z" fill="#8a5a43"/><path d="M766.702 971.618q10.267 15.86 11.859 21.906 4.064 11.595 4.192 23.18.196 9.386-4.19 21.585-3.21 9.222-11.336 22.7 4.713-9.876 6.05-17.728 1.852-8.39.35-18.22-3.304-17.428-17.985-34.816z" fill="#1b1716"/><path d="M801.814 1156.16q-.464-4.807-1.974-8.11-.73-1.576-1.298-2.363.34 3.915.053 5.695-.875-3.594-2.463-7.413-2.398-5.742-2.874-6.64l-4.278-8.29q-1.43-3.161-1.664-5.16.071-1.116 2.03-1.18 1.447.026 3.944 1.42 4.04 2.148 6.961 7.296z" fill="#503326"/><path d="M516.91 1033.234l-.987-.488q-6.518-3.097-9.865-6.031-3.058-2.552-6.882-9.206 2.659-.332 5.411-.267 2.575.02 10.885.51-.332 2.242-.053 4.965.2 2.438 1.49 10.517M632.566 1036.022l-.39.193q-3.082 1.6-4.259 1.321-.28-.06-.511-.205-.14-.031-.607-.588-.446-.594-.975-2.137l-3.964-1.134-9.913 11.582q6.196-.966 9.157-1.653 2.894-.708 3.326-.895 1.016-.327 1.878-.703.857-.377 1.559-.803.426-.189 1.828-1.362 1.335-1.195 2.871-3.616" fill="#1b1716"/></g><defs><linearGradient id="grad21" gradientUnits="userSpaceOnUse" x1="470.441" y1="1039.78" x2="595.197" y2="1073.025"><stop offset="0%" stop-color="#f8e2cc" stop-opacity="0"/><stop offset="100%" stop-color="#f8e2cc"/></linearGradient><linearGradient id="grad24" gradientUnits="userSpaceOnUse" x1="520.03" y1="951.473" x2="452.914" y2="1012.778"><stop offset="0%" stop-color="#f8e2cc" stop-opacity="0"/><stop offset="100%" stop-color="#f8e2cc"/></linearGradient><linearGradient id="grad0" gradientUnits="userSpaceOnUse" x1="430.112" y1="1538.251" x2="885.676" y2="1235.386"><stop offset="0%" stop-color="#995931" stop-opacity="0"/><stop offset="100%" stop-color="#995931"/></linearGradient><linearGradient id="grad4" gradientUnits="userSpaceOnUse" x1="531.655" y1="1173.884" x2="665.134" y2="1170.207"><stop offset="0%" stop-color="#e0a491" stop-opacity="0"/><stop offset="100%" stop-color="#e0a491"/></linearGradient><linearGradient id="grad8" gradientUnits="userSpaceOnUse" x1="554.833" y1="949.776" x2="536.458" y2="978.274"><stop offset="0%" stop-color="#e0a491" stop-opacity="0"/><stop offset="100%" stop-color="#e0a491"/></linearGradient><linearGradient id="grad18" gradientUnits="userSpaceOnUse" x1="529.715" y1="1077.077" x2="663.126" y2="1033.767"><stop offset="0%" stop-color="#e0a491" stop-opacity="0"/><stop offset="100%" stop-color="#e0a491"/></linearGradient><linearGradient id="grad1" gradientUnits="userSpaceOnUse" x1="590.434" y1="917.487" x2="429.734" y2="917.487"><stop offset="0%" stop-color="#e0a491" stop-opacity="0"/><stop offset="100%" stop-color="#e0a491"/></linearGradient><linearGradient id="grad14" gradientUnits="userSpaceOnUse" x1="541.934" y1="932.004" x2="479.575" y2="909.709"><stop offset="0%" stop-color="#c77e70" stop-opacity="0"/><stop offset="100%" stop-color="#c77e70"/></linearGradient><linearGradient id="grad20" gradientUnits="userSpaceOnUse" x1="476.793" y1="1067.537" x2="606.292" y2="1143.488"><stop offset="0%" stop-color="#f8e2cc" stop-opacity="0"/><stop offset="100%" stop-color="#f8e2cc"/></linearGradient><linearGradient id="grad16" gradientUnits="userSpaceOnUse" x1="503.088" y1="1008.744" x2="482.447" y2="1005.235"><stop offset="0%" stop-color="#c77e70" stop-opacity="0"/><stop offset="100%" stop-color="#c77e70"/></linearGradient><linearGradient id="grad23" gradientUnits="userSpaceOnUse" x1="559.111" y1="961.411" x2="551.704" y2="983.905"><stop offset="0%" stop-color="#f8e2cc" stop-opacity="0"/><stop offset="100%" stop-color="#f8e2cc"/></linearGradient><linearGradient id="grad17" gradientUnits="userSpaceOnUse" x1="493.668" y1="1073.755" x2="481.606" y2="972.852"><stop offset="0%" stop-color="#c77e70" stop-opacity="0"/><stop offset="100%" stop-color="#c77e70"/></linearGradient><linearGradient id="grad19" gradientUnits="userSpaceOnUse" x1="633.761" y1="958.773" x2="640.273" y2="1087.095"><stop offset="0%" stop-color="#f8e2cc" stop-opacity="0"/><stop offset="100%" stop-color="#f8e2cc"/></linearGradient><linearGradient id="grad2" gradientUnits="userSpaceOnUse" x1="531.155" y1="1000.711" x2="705.557" y2="1016.091"><stop offset="0%" stop-color="#e0a491" stop-opacity="0"/><stop offset="100%" stop-color="#e0a491"/></linearGradient><linearGradient id="grad10" gradientUnits="userSpaceOnUse" x1="565.078" y1="1242.149" x2="470.996" y2="1100.188"><stop offset="0%" stop-color="#e0a491" stop-opacity="0"/><stop offset="100%" stop-color="#e0a491"/></linearGradient><linearGradient id="grad25" gradientUnits="userSpaceOnUse" x1="481.758" y1="1052.394" x2="466.163" y2="991.385"><stop offset="0%" stop-color="#f8e2cc" stop-opacity="0"/><stop offset="100%" stop-color="#f8e2cc"/></linearGradient><linearGradient id="grad22" gradientUnits="userSpaceOnUse" x1="568.674" y1="954.405" x2="600.167" y2="813.163"><stop offset="0%" stop-color="#f8e2cc" stop-opacity="0"/><stop offset="100%" stop-color="#f8e2cc"/></linearGradient><linearGradient id="grad12" gradientUnits="userSpaceOnUse" x1="526.328" y1="954.982" x2="469.856" y2="1029.227"><stop offset="0%" stop-color="#e0a491" stop-opacity="0"/><stop offset="100%" stop-color="#e0a491"/></linearGradient><linearGradient id="grad15" gradientUnits="userSpaceOnUse" x1="623.54" y1="945.95" x2="681.459" y2="945.95"><stop offset="0%" stop-color="#c77e70" stop-opacity="0"/><stop offset="100%" stop-color="#c77e70"/></linearGradient><linearGradient id="grad5" gradientUnits="userSpaceOnUse" x1="628.156" y1="912.54" x2="637.011" y2="651.875"><stop offset="0%" stop-color="#e0a491" stop-opacity="0"/><stop offset="100%" stop-color="#e0a491"/></linearGradient><linearGradient id="grad7" gradientUnits="userSpaceOnUse" x1="602.408" y1="978.718" x2="644.279" y2="859.443"><stop offset="0%" stop-color="#e0a491" stop-opacity="0"/><stop offset="100%" stop-color="#e0a491"/></linearGradient><linearGradient id="grad9" gradientUnits="userSpaceOnUse" x1="590.664" y1="1109.057" x2="443.4" y2="1054.262"><stop offset="0%" stop-color="#e0a491" stop-opacity="0"/><stop offset="100%" stop-color="#e0a491"/></linearGradient><linearGradient id="grad3" gradientUnits="userSpaceOnUse" x1="558.586" y1="987.655" x2="649.373" y2="954.458"><stop offset="0%" stop-color="#e0a491" stop-opacity="0"/><stop offset="100%" stop-color="#e0a491"/></linearGradient><linearGradient id="grad11" gradientUnits="userSpaceOnUse" x1="533.16" y1="1179.126" x2="683.85" y2="1158.412"><stop offset="0%" stop-color="#e0a491" stop-opacity="0"/><stop offset="100%" stop-color="#e0a491"/></linearGradient><linearGradient id="grad13" gradientUnits="userSpaceOnUse" x1="643.054" y1="1116.845" x2="643.054" y2="906.993"><stop offset="0%" stop-color="#e0a491" stop-opacity="0"/><stop offset="100%" stop-color="#e0a491"/></linearGradient><linearGradient id="grad6" gradientUnits="userSpaceOnUse" x1="535.306" y1="1106.899" x2="471.345" y2="975.872"><stop offset="0%" stop-color="#e0a491" stop-opacity="0"/><stop offset="100%" stop-color="#e0a491"/></linearGradient></defs></svg>